<svg xmlns="http://www.w3.org/2000/svg" width="88" height="88" viewBox="150.85 255.73 504.27 504.27" preserveAspectRatio="xMidYMid meet">
<title>Sumi chalice, moss watercolor</title>
<defs>
<linearGradient id="wash" gradientUnits="userSpaceOnUse" x1="224.709" y1="295.404" x2="581.261" y2="720.326">
<stop offset="0" stop-color="#95a463"/>
<stop offset="1" stop-color="#5e6f39"/>
</linearGradient>
<mask id="ink" maskUnits="userSpaceOnUse" x="120.594" y="225.474" width="564.782" height="564.782">
<g transform="translate(0.000000,862.000000) scale(0.100000,-0.100000)" fill="#ffffff" stroke="none">
<path d="M 5070 5864 c0 -9 5 -14 12 -12 c18 6 21 28 4 28 c-9 0 -16 -7 -16 -16 z"/>
<path d="M 4990 5830 c0 -5 5 -10 10 -10 c6 0 10 5 10 10 c0 6 -4 10 -10 10 c-5 0 -10 -4 -10 -10 z"/>
<path d="M 5005 5800 c-3 -5 -1 -10 4 -10 c6 0 11 5 11 10 c0 6 -2 10 -4 10 c-3 0 -8 -4 -11 -10 z"/>
<path d="M 5070 5759 c0 -5 5 -7 10 -4 c6 3 10 8 10 11 c0 2 -4 4 -10 4 c-5 0 -10 -5 -10 -11 z"/>
<path d="M 4950 5720 c0 -5 7 -10 15 -10 c8 0 15 5 15 10 c0 6 -7 10 -15 10 c-8 0 -15 -4 -15 -10 z"/>
<path d="M 4637 5705 c-4 -8 -2 -17 4 -21 c11 -6 39 13 39 27 c0 15 -37 10 -43 -6 z"/>
<path d="M 4997 5680 c-15 -16 -27 -37 -27 -45 c0 -8 -4 -15 -10 -15 c-16 0 -50 -38 -50 -56 c0 -12 5 -14 18 -9 c9 4 26 9 37 10 c11 2 22 4 24 4 c3 1 -3 7 -13 14 c-16 12 -15 14 8 36 c15 14 26 32 26 41 c0 9 5 21 12 28 c6 6 9 14 6 17 c-2 3 -17 -8 -31 -25 z"/>
<path d="M 4575 5660 c-3 -5 -1 -10 4 -10 c6 0 11 5 11 10 c0 6 -2 10 -4 10 c-3 0 -8 -4 -11 -10 z"/>
<path d="M 5012 5637 c-10 -11 -9 -17 2 -26 c21 -18 51 -9 51 14 c0 24 -36 32 -53 12 z"/>
<path d="M 4525 5630 c-3 -5 -2 -10 4 -10 c5 0 13 5 16 10 c3 6 2 10 -4 10 c-5 0 -13 -4 -16 -10 z"/>
<path d="M 4618 5619 c-21 -12 -23 -40 -6 -57 c18 -18 31 -15 47 9 c17 29 -13 64 -41 48 z"/>
<path d="M 4495 5599 c-4 -6 -13 -8 -20 -5 c-7 2 -16 -2 -19 -10 c-3 -8 -12 -14 -21 -14 c-8 0 -15 -4 -15 -8 c0 -5 -11 -15 -25 -22 c-14 -7 -25 -19 -25 -26 c0 -8 -6 -11 -14 -8 c-21 8 -56 -14 -56 -35 c0 -11 6 -21 14 -24 c15 -6 56 23 56 40 c0 11 55 63 67 63 c10 1 80 59 71 60 c-4 0 -10 -5 -13 -11 z"/>
<path d="M 5640 5570 c0 -5 7 -10 15 -10 c8 0 15 5 15 10 c0 6 -7 10 -15 10 c-8 0 -15 -4 -15 -10 z"/>
<path d="M 4870 5545 c-8 -9 -8 -15 -2 -15 c12 0 26 19 19 26 c-2 2 -10 -2 -17 -11 z"/>
<path d="M 5784 5519 c-10 -17 13 -36 27 -22 c12 12 4 33 -11 33 c-5 0 -12 -5 -16 -11 z"/>
<path d="M 4855 5500 c-4 -6 -11 -7 -17 -4 c-6 4 -9 3 -6 -2 c3 -5 -9 -16 -27 -25 c-30 -14 -32 -14 -27 3 c7 26 -15 22 -44 -9 c-15 -16 -22 -33 -19 -44 c3 -9 1 -20 -5 -24 c-16 -10 -224 -14 -230 -4 c-3 4 -33 9 -67 12 c-34 2 -69 9 -77 16 c-18 15 -40 5 -32 -15 c7 -17 -70 -34 -103 -22 c-15 5 -28 5 -34 -1 c-6 -6 -19 -6 -33 -1 c-12 5 -35 6 -51 3 c-15 -3 -35 -5 -43 -4 c-8 1 -26 3 -40 4 c-14 1 -28 7 -32 12 c-5 6 -8 5 -8 -3 c0 -9 -12 -13 -38 -11 c-21 2 -43 0 -49 -4 c-6 -4 -14 -4 -16 0 c-7 10 -284 6 -367 -5 c-36 -5 -71 -7 -77 -5 c-7 3 -13 1 -13 -3 c0 -5 -17 -10 -38 -10 c-42 -2 -111 -12 -122 -19 c-4 -2 -22 -7 -41 -10 c-122 -20 -157 -29 -189 -44 c-19 -9 -51 -18 -70 -19 c-40 -3 -99 -20 -117 -34 c-7 -6 -19 -8 -27 -5 c-8 3 -20 0 -26 -8 c-6 -8 -18 -11 -26 -8 c-8 3 -14 1 -14 -5 c0 -6 6 -12 13 -15 c6 -2 0 -6 -15 -9 c-15 -3 -25 -2 -22 3 c2 4 -4 7 -15 6 c-11 0 -17 -6 -14 -14 c3 -7 0 -13 -6 -13 c-6 0 -11 5 -11 10 c0 6 -5 10 -11 10 c-6 0 -8 -7 -4 -17 c5 -14 3 -15 -5 -7 c-13 13 -50 7 -50 -7 c0 -5 -3 -8 -7 -8 c-21 3 -26 -2 -13 -12 c13 -9 12 -10 -2 -5 c-25 8 -48 -3 -49 -23 c0 -10 -2 -11 -6 -3 c-6 15 -23 16 -23 1 c0 -6 -6 -16 -12 -23 c-19 -18 -48 -27 -48 -15 c0 6 -5 7 -10 4 c-6 -4 -8 -11 -5 -16 c4 -5 1 -9 -5 -9 c-6 0 -8 -4 -5 -10 c3 -5 3 -16 -2 -22 c-10 -18 -14 -36 -16 -83 l-2 -39 l-69 -18 c-73 -19 -103 -38 -117 -77 c-14 -34 10 -55 79 -70 c105 -23 180 -82 175 -138 c0 -7 3 -13 8 -13 c5 0 9 -9 9 -19 c0 -11 6 -26 13 -33 c18 -19 46 -65 80 -128 c16 -30 36 -63 45 -72 c16 -19 37 -25 27 -8 c-3 6 -1 10 5 10 c6 0 10 -6 8 -12 c-3 -14 107 -129 116 -122 c3 2 4 1 1 -3 c-7 -9 46 -63 62 -63 c7 0 13 -6 13 -13 c0 -8 12 -24 27 -38 c17 -15 22 -17 13 -5 c-14 18 -14 18 7 5 c12 -7 20 -15 17 -18 c-8 -9 38 -50 51 -45 c15 6 56 -26 49 -37 c-8 -14 94 -79 234 -149 c122 -60 222 -98 222 -83 c0 2 7 -3 16 -11 c12 -13 20 -14 36 -5 c16 8 22 8 28 -2 c5 -7 14 -14 22 -15 c7 -2 60 -12 118 -23 c58 -12 124 -21 147 -21 c36 0 43 -3 43 -20 c0 -11 4 -20 8 -20 c5 0 17 9 27 20 c20 22 35 26 35 9 c0 -7 23 -34 50 -60 c35 -34 50 -56 50 -74 c0 -17 -4 -24 -11 -19 c-8 5 -9 2 -2 -11 c12 -20 5 -56 -11 -68 c-8 -6 -8 -10 0 -13 c7 -3 10 -14 7 -24 c-3 -13 0 -20 8 -20 c9 0 10 -3 3 -8 c-13 -9 -27 -45 -14 -37 c6 3 9 -12 7 -40 c-1 -25 -4 -45 -7 -45 c-3 0 -6 -30 -6 -68 c-1 -37 -4 -92 -7 -122 c-5 -46 -4 -49 4 -22 c14 48 19 39 18 -29 c-1 -33 -5 -56 -9 -50 c-4 7 -5 -14 -3 -46 c2 -42 0 -52 -6 -38 c-7 15 -10 6 -10 -37 c-1 -31 -4 -64 -8 -74 c-4 -11 -3 -15 4 -11 c10 7 27 -33 18 -42 c-3 -2 -5 1 -5 7 c0 7 -3 12 -7 12 c-5 0 -7 -17 -7 -37 c1 -21 6 -37 10 -36 c5 1 10 -12 11 -28 c1 -17 -2 -27 -7 -24 c-6 4 -10 -1 -10 -9 c0 -8 5 -18 10 -21 c6 -3 10 -13 10 -21 c0 -8 -4 -13 -9 -9 c-15 8 -25 -15 -12 -28 c14 -14 15 -40 1 -32 c-15 9 -32 -4 -23 -18 c4 -7 6 -47 5 -90 c-2 -47 1 -77 8 -77 c5 0 10 -4 10 -10 c0 -5 -7 -7 -15 -4 c-8 4 -15 1 -15 -5 c0 -6 6 -11 13 -11 c6 0 13 -11 13 -25 c1 -15 -3 -25 -12 -25 c-8 0 -14 -10 -13 -22 c0 -21 1 -21 8 -4 c6 15 9 16 13 5 c2 -8 -1 -25 -9 -39 c-7 -15 -13 -19 -14 -10 c0 10 -3 8 -9 -5 c-14 -33 -11 -45 13 -55 l22 -9 l-23 -7 c-17 -5 -22 -13 -21 -33 c4 -52 -1 -81 -13 -78 c-7 1 -12 -5 -10 -14 c3 -18 -50 -35 -56 -18 c-6 15 -22 10 -22 -6 c0 -13 -19 -20 -43 -16 c-4 1 -20 -10 -35 -24 c-15 -14 -30 -25 -34 -25 c-3 0 -13 -6 -20 -13 c-12 -11 -95 -57 -104 -57 c-2 0 -1 7 3 16 c4 12 2 15 -8 12 c-8 -3 -13 -11 -11 -17 c1 -7 -2 -10 -8 -6 c-11 7 -63 -43 -152 -145 c-52 -60 -84 -142 -74 -192 c7 -38 58 -88 88 -88 c26 0 105 -34 128 -55 c24 -21 63 -26 218 -25 c108 0 142 -3 142 -12 c1 -8 7 -5 15 6 c8 11 15 15 15 9 c0 -10 34 -10 173 2 c51 4 77 -6 45 -18 c-7 -2 -9 -8 -5 -13 c5 -5 14 -1 21 9 c17 23 23 22 21 -4 c-1 -11 -8 -25 -16 -30 c-11 -7 -11 -9 4 -9 c16 0 22 12 18 34 c-1 5 5 6 14 2 c9 -3 14 -2 11 3 c-3 5 1 12 10 15 c22 8 26 8 19 -4 c-4 -6 10 -10 34 -10 c29 0 41 -4 41 -15 c0 -12 6 -12 46 0 c25 7 51 12 57 9 c7 -2 26 0 42 4 l30 8 l-35 8 c-25 5 -31 9 -21 15 c7 5 22 6 34 3 c12 -3 18 -1 14 5 c-3 5 -1 10 6 10 c7 1 27 3 45 6 c17 2 32 1 32 -3 c0 -4 7 -7 15 -7 c8 0 15 7 15 15 c0 10 8 13 30 10 c17 -3 30 -1 30 4 c0 4 11 10 24 14 c13 3 42 25 65 50 c22 24 45 44 51 44 c5 0 12 11 16 23 c3 14 20 31 39 40 c55 26 60 111 10 184 c-12 18 -24 31 -27 28 c-3 -3 -13 10 -22 30 c-10 19 -21 33 -27 30 c-5 -4 -9 0 -9 7 c-1 16 -109 90 -170 116 c-101 43 -212 61 -381 62 c-10 0 -19 11 -21 25 c-3 14 -1 25 3 25 c5 0 9 5 9 10 c0 6 -7 10 -15 10 c-12 0 -14 4 -5 19 c7 14 7 22 -1 26 c-7 5 -5 15 5 31 c18 27 20 38 6 29 c-14 -9 -12 29 2 43 c9 9 10 15 2 20 c-7 5 -11 53 -10 140 c1 111 -1 132 -14 132 c-13 0 -13 1 0 10 c12 7 15 35 15 140 c0 71 3 130 8 130 c11 0 9 38 -3 45 c-5 3 -10 18 -9 33 c0 24 1 25 9 7 c6 -13 7 -4 2 25 c-7 51 -7 74 0 145 c3 28 6 56 7 63 c3 32 21 7 22 -30 c1 -41 1 -41 9 -14 c5 16 7 33 4 38 c-3 4 2 15 11 24 c9 9 13 19 10 22 c-3 4 -9 2 -13 -3 c-14 -20 -40 -15 -46 7 c-9 35 -7 41 8 29 c10 -9 15 -8 20 4 c3 8 0 15 -7 15 c-21 0 -35 66 -25 118 c6 26 12 56 14 67 c2 11 6 38 9 60 c3 22 10 58 16 79 c8 28 7 56 -2 101 c-21 106 -4 143 74 160 c15 3 26 9 23 14 c-3 4 18 18 47 30 c29 12 75 37 102 55 c28 17 77 45 109 62 c99 49 119 60 130 76 c13 18 62 36 52 19 c-12 -18 16 -12 51 12 c19 13 31 28 28 37 c-3 9 10 24 33 38 c49 31 129 107 135 129 c4 16 5 16 6 -1 c1 -15 4 -16 16 -6 c8 7 22 9 31 6 c22 -9 44 11 44 39 c0 13 11 32 25 43 c16 13 23 26 19 36 c-8 22 -19 20 -44 -6 c-29 -31 -25 -46 5 -18 c14 13 25 19 25 13 c0 -6 -19 -23 -42 -38 c-24 -15 -37 -22 -30 -14 c14 15 16 53 2 44 c-6 -3 -7 1 -3 10 c5 13 7 14 14 3 c5 -8 9 -9 9 -2 c0 7 17 20 38 29 c44 21 53 33 46 61 c-3 13 0 23 9 27 c11 4 13 0 10 -14 c-7 -26 2 -24 35 6 c18 17 22 25 12 25 c-8 0 0 8 18 17 c18 9 42 29 53 45 c11 15 25 25 30 22 c6 -3 13 3 16 14 c3 12 11 18 18 16 c7 -3 16 -1 20 5 c4 7 -4 11 -19 11 c-29 0 -30 2 -17 28 c11 19 25 73 23 84 c-2 9 62 58 75 58 c6 0 13 -7 17 -15 c3 -8 2 -15 -2 -15 c-10 0 -92 -80 -92 -90 c0 -4 12 -11 26 -14 c21 -6 32 0 61 29 c18 19 42 35 52 35 c22 0 55 35 46 49 c-7 12 24 71 37 71 c4 0 8 6 8 14 c0 8 15 23 33 35 c17 11 28 21 22 21 c-5 0 1 7 13 16 c21 14 32 64 14 64 c-21 0 -29 46 -19 98 c14 66 9 75 -71 127 c-38 25 -62 47 -62 59 c0 16 -2 15 -19 -5 c-11 -13 -23 -21 -27 -17 c-4 4 -2 13 4 21 c33 39 -23 106 -72 87 c-14 -5 -26 -15 -26 -23 c0 -38 -16 -38 -186 7 c-34 9 -118 25 -185 36 c-194 30 -190 29 -179 50 c18 34 10 34 -23 2 c-28 -27 -37 -31 -69 -26 c-34 6 -36 8 -27 34 c6 15 28 46 51 68 c23 23 36 42 30 42 c-6 0 -14 -5 -17 -10 z M 4760 5459 c-7 -11 -14 -18 -17 -15 c-3 3 0 12 7 21 c18 21 23 19 10 -6 z M 4755 5390 c-3 -5 -11 -10 -16 -10 c-6 0 -7 5 -4 10 c3 6 11 10 16 10 c6 0 7 -4 4 -10 z M 2870 5220 c0 -5 -5 -10 -11 -10 c-5 0 -7 5 -4 10 c3 6 8 10 11 10 c2 0 4 -4 4 -10 z M 2781 5187 c-8 -8 -11 -7 -11 4 c0 20 13 34 18 19 c3 -7 -1 -17 -7 -23 z M 2620 5110 c0 -5 -4 -10 -10 -10 c-5 0 -10 5 -10 10 c0 6 5 10 10 10 c6 0 10 -4 10 -10 z M 2500 5054 c0 -8 -4 -13 -9 -9 c-5 3 -16 -3 -23 -12 c-12 -17 -48 -28 -48 -14 c0 5 67 49 78 51 c1 0 2 -7 2 -16 z M 5613 4795 c-3 -9 -8 -14 -10 -11 c-3 3 -2 9 2 15 c9 16 15 13 8 -4 z M 5430 4686 c0 -3 -4 -8 -10 -11 c-5 -3 -10 -1 -10 4 c0 6 5 11 10 11 c6 0 10 -2 10 -4 z M 5510 4676 c0 -3 -4 -8 -10 -11 c-5 -3 -10 -1 -10 4 c0 6 5 11 10 11 c6 0 10 -2 10 -4 z M 5401 4628 c-5 -13 -17 -30 -26 -38 c-15 -12 -14 -7 4 29 c23 45 38 52 22 9 z M 2498 4605 c-3 -3 -9 2 -12 12 c-6 14 -5 15 5 6 c7 -7 10 -15 7 -18 z M 5383 4551 c-3 -11 -12 -22 -20 -26 c-13 -4 -14 -3 -3 10 c7 8 9 15 4 15 c-7 0 15 19 23 20 c0 0 -1 -9 -4 -19 z M 5219 4379 c-16 -10 -23 -4 -14 10 c3 6 11 8 17 5 c6 -4 5 -9 -3 -15 z M 5034 4219 c-10 -12 -32 -30 -49 -41 c-18 -12 -12 -4 15 21 c49 44 64 53 34 20 z M 5010 4157 c0 -2 -10 -12 -22 -23 l-23 -19 l19 23 c18 21 26 27 26 19 z M 2950 4018 c0 -6 -6 -5 -15 2 c-8 7 -15 14 -15 16 c0 2 7 1 15 -2 c8 -4 15 -11 15 -16 z M 4830 4031 c0 -5 -7 -12 -16 -15 c-14 -5 -15 -4 -4 9 c14 17 20 19 20 6 z M 3091 3963 c13 -16 12 -17 -3 -4 c-10 7 -18 15 -18 17 c0 8 8 3 21 -13 z M 3035 3960 c3 -5 2 -10 -4 -10 c-5 0 -13 5 -16 10 c-3 6 -2 10 4 10 c5 0 13 -4 16 -10 z M 3160 3935 c7 -8 8 -15 2 -15 c-5 0 -15 7 -22 15 c-7 8 -8 15 -2 15 c5 0 15 -7 22 -15 z M 3240 3895 c0 -2 -13 1 -30 6 c-16 6 -30 15 -30 19 c0 5 14 2 30 -6 c17 -9 30 -17 30 -19 z M 3387 3854 c-3 -3 -12 -4 -19 -1 c-8 3 -5 6 6 6 c11 1 17 -2 13 -5 z M 3420 3850 c0 -5 -5 -10 -11 -10 c-5 0 -7 5 -4 10 c3 6 8 10 11 10 c2 0 4 -4 4 -10 z M 3457 3834 c-3 -3 -12 -4 -19 -1 c-8 3 -5 6 6 6 c11 1 17 -2 13 -5 z M 4247 3308 c-3 -8 -6 -5 -6 6 c-1 11 2 17 5 13 c3 -3 4 -12 1 -19 z M 4237 2963 c-3 -10 -5 -4 -5 12 c0 17 2 24 5 18 c2 -7 2 -21 0 -30 z M 4231 2859 c0 -34 -3 -71 -7 -82 c-4 -14 -3 -17 6 -12 c9 5 9 3 2 -11 c-5 -11 -12 -26 -15 -34 c-3 -8 -4 23 -2 70 c2 47 4 98 4 114 c1 16 4 27 7 23 c3 -3 6 -34 5 -68 z M 4017 2778 c-2 -13 -4 -5 -4 17 c-1 22 1 32 4 23 c2 -10 2 -28 0 -40 z M 4227 2345 c-3 -45 -15 -45 -15 0 c0 19 4 35 9 35 c5 0 8 -16 6 -35 z M 4211 2194 c-5 -58 -9 -73 -10 -43 c-1 48 9 142 15 136 c2 -2 0 -44 -5 -93 z M 4207 2078 c-3 -8 -6 -5 -6 6 c-1 11 2 17 5 13 c3 -3 4 -12 1 -19 z M 3990 2028 c0 -25 -12 -58 -19 -53 c-10 6 -1 65 10 65 c5 0 9 -6 9 -12 z M 3940 1888 c0 -9 4 -8 10 2 c9 13 10 13 10 0 c0 -13 1 -13 10 0 c12 20 23 6 15 -19 c-4 -15 -15 -20 -43 -20 c-20 0 -53 -5 -72 -10 c-44 -14 -73 -14 -65 -1 c3 6 15 10 26 10 c10 0 19 3 19 8 c0 4 12 8 27 9 c14 0 30 8 35 17 c11 19 28 21 28 4 z M 4646 1865 c25 -19 14 -19 -22 0 c-16 8 -22 15 -13 15 c8 0 24 -7 35 -15 z M 4695 1840 c3 -6 -1 -7 -9 -4 c-18 7 -21 14 -7 14 c6 0 13 -4 16 -10 z M 4757 1804 l28 -26 l-35 23 c-46 29 -45 29 -32 29 c6 0 24 -12 39 -26 z M 3590 1746 c0 -3 -15 -15 -32 -27 l-33 -23 l24 27 c22 24 41 35 41 23 z M 3840 1288 c0 -12 -58 -10 -65 2 c-4 6 8 9 29 8 c20 -2 36 -6 36 -10 z M 4380 1270 c0 -5 -4 -10 -10 -10 c-5 0 -10 5 -10 10 c0 6 5 10 10 10 c6 0 10 -4 10 -10 z M 4430 1272 c0 -8 -43 -32 -56 -32 c-15 0 28 31 54 39 c1 1 2 -3 2 -7 z"/>
<path d="M 4979 5470 c-25 -15 -56 -65 -36 -57 c9 3 19 1 23 -4 c9 -15 54 30 54 53 c0 20 -16 23 -41 8 z"/>
<path d="M 5240 5370 c0 -5 5 -10 10 -10 c6 0 10 5 10 10 c0 6 -4 10 -10 10 c-5 0 -10 -4 -10 -10 z"/>
<path d="M 5603 5373 c-15 -5 -17 -39 -4 -47 c5 -3 22 1 37 9 c16 8 24 15 17 15 c-7 0 -10 7 -7 15 c6 15 -16 19 -43 8 z"/>
<path d="M 5571 5314 c-2 -19 44 -79 59 -79 c19 0 25 32 10 50 c-7 8 -23 15 -35 15 c-13 0 -26 6 -28 13 c-3 7 -6 7 -6 1 z"/>
<path d="M 5820 5185 c-17 -20 -5 -45 20 -45 c11 0 23 7 26 15 c6 15 -11 45 -26 45 c-4 0 -13 -7 -20 -15 z"/>
<path d="M 5760 5139 c0 -24 23 -21 28 4 c2 10 -3 17 -12 17 c-10 0 -16 -9 -16 -21 z"/>
<path d="M 5314 4335 c-9 -21 8 -37 29 -29 c23 8 21 21 -3 34 c-16 9 -22 8 -26 -5 z"/>
<path d="M 3980 3060 c0 -5 5 -10 10 -10 c6 0 10 5 10 10 c0 6 -4 10 -10 10 c-5 0 -10 -4 -10 -10 z"/>
<path d="M 3630 1799 c0 -5 5 -7 10 -4 c6 3 10 8 10 11 c0 2 -4 4 -10 4 c-5 0 -10 -5 -10 -11 z"/>
<path d="M 4128 1243 c7 -3 16 -2 19 1 c4 3 -2 6 -13 5 c-11 0 -14 -3 -6 -6 z"/>
<path d="M 4305 1220 c-3 -5 -1 -10 4 -10 c6 0 11 5 11 10 c0 6 -2 10 -4 10 c-3 0 -8 -4 -11 -10 z"/>
</g>
</mask>
<filter id="wc" filterUnits="userSpaceOnUse" x="120.594" y="225.474" width="564.782" height="564.782" color-interpolation-filters="sRGB">
<feTurbulence type="fractalNoise" baseFrequency="0.022" numOctaves="3" seed="826" result="flow"/>
<feDisplacementMap in="SourceGraphic" in2="flow" scale="8.068" xChannelSelector="R" yChannelSelector="G" result="bled"/>
<feGaussianBlur in="bled" stdDeviation="1.109" result="soft"/>
<feGaussianBlur in="soft" stdDeviation="11.094" result="spread"/>
<feComposite in="soft" in2="spread" operator="out" result="rim"/>
<feColorMatrix in="rim" type="matrix" values="0.78 0 0 0 0  0 0.78 0 0 0  0 0 0.78 0 0  0 0 0 0.85 0" result="rimDark"/>
<feColorMatrix in="soft" type="matrix" values="1 0 0 0 0  0 1 0 0 0  0 0 1 0 0  0 0 0 0.72 0" result="body"/>
<feMerge result="wet"><feMergeNode in="body"/><feMergeNode in="rimDark"/></feMerge>
<feTurbulence type="fractalNoise" baseFrequency="0.009" numOctaves="2" seed="829" result="poolRaw"/>
<feColorMatrix in="poolRaw" type="matrix" values="1 0 0 0 0  1 0 0 0 0  1 0 0 0 0  0 0 0 0 1" result="pool"/>
<feComposite in="wet" in2="pool" operator="arithmetic" k1="0.8" k2="0.6" k3="0" k4="0" result="pooled"/>
<feTurbulence type="fractalNoise" baseFrequency="0.11" numOctaves="2" seed="833" result="grainRaw"/>
<feColorMatrix in="grainRaw" type="matrix" values="1 0 0 0 0  1 0 0 0 0  1 0 0 0 0  0 0 0 0 1" result="grain"/>
<feComposite in="pooled" in2="grain" operator="arithmetic" k1="0.24" k2="0.88" k3="0" k4="0"/>
</filter>
</defs>
<g filter="url(#wc)"><rect x="120.594" y="225.474" width="564.782" height="564.782" fill="url(#wash)" mask="url(#ink)"/></g>
</svg>
