<svg xmlns="http://www.w3.org/2000/svg" width="512" height="512" viewBox="-186.27 -0.11 884.23 884.23">
<title>Pratibha sumi owl (cleaned master)</title>
<g transform="translate(-255.443268,949.000000) scale(1.000000,-1.000000)" fill="#000000" stroke="none">
<path d="M 713 914 l0 -2 l-1 -1 l0 -2 l-2 1 l-1 1 l0 -3 l-1 -2 l-3 -7 l-3 -6 l-1 -1 l-1 0 l-1 1 l-1 1 l-1 0 l-2 -1 l-2 -4 l-2 -4 l-7 -7 l-6 -6 l0 -4 l0 -3 l-5 -5 l-6 -5 l-1 0 l-1 0 l0 -1 l0 -1 l-3 -1 l-2 -1 l-11 -5 l-10 -5 l-13 0 l-14 -1 l0 1 l1 0 l10 3 l10 2 l3 1 l4 0 l1 1 l1 1 l-5 0 l-4 -1 l-5 -1 l-5 -1 l-10 -3 l-10 -4 l0 1 l0 2 l-1 -2 l-1 -1 l-1 0 l0 1 l-4 -2 l-4 -2 l-3 -1 l-3 -2 l-1 2 l-2 1 l-2 -1 l-2 0 l-5 -1 l-5 -1 l0 1 l-1 0 l0 -1 l0 -1 l-2 0 l-1 0 l-1 -1 l0 -2 l-2 -1 l-2 0 l0 -1 l1 -2 l-2 1 l-3 0 l-3 -1 l-3 -2 l2 1 l2 0 l3 1 l3 0 l-2 -1 l-1 0 l-6 -3 l-5 -2 l-1 -1 l0 -1 l-2 1 l-2 0 l1 -1 l1 -1 l-3 -1 l-2 -1 l-7 -7 l-7 -7 l0 1 l0 2 l2 2 l1 3 l0 1 l0 2 l3 1 l3 2 l-1 1 l0 0 l7 6 l6 5 l-1 0 l-1 0 l-2 -2 l-2 -2 l0 1 l0 0 l-6 -6 l-7 -6 l-3 -6 l-2 -6 l-2 -2 l-1 -1 l-1 0 l-1 0 l0 -1 l0 -1 l-1 0 l-1 0 l0 4 l1 4 l-1 -1 l-1 0 l0 1 l-1 2 l0 -2 l0 -2 l0 -4 l-1 -4 l-1 0 l0 0 l-4 8 l-4 8 l0 1 l0 1 l-2 -1 l-1 0 l-2 2 l-2 2 l-1 0 l-1 0 l0 1 l0 1 l-1 0 l-2 -1 l1 2 l0 2 l-2 1 l-1 2 l0 -2 l1 -1 l-1 0 l-2 -1 l0 1 l0 1 l0 2 l0 2 l-1 -2 l0 -1 l-2 0 l-1 0 l-8 5 l-7 5 l-3 1 l-2 0 l0 2 l0 1 l-2 -1 l-1 -1 l0 1 l1 1 l-1 1 l-1 0 l-2 1 l-1 0 l-1 -1 l0 -1 l-1 0 l-1 0 l1 2 l0 1 l-1 0 l-1 0 l-1 0 l0 1 l-2 0 l-1 1 l-1 -1 l0 -1 l-2 2 l-2 3 l0 -2 l1 -1 l-1 0 l-1 0 l0 1 l0 1 l-1 -1 l-2 0 l0 1 l0 1 l-2 0 l-1 -1 l1 1 l0 1 l-1 0 l-1 0 l0 -1 l0 -1 l-1 0 l-2 0 l1 2 l0 2 l-1 -2 l-1 -1 l-2 1 l-1 2 l-1 1 l-2 1 l-3 0 l-2 0 l-4 0 l-3 1 l-2 0 l-2 1 l-1 0 l-2 -1 l0 1 l0 1 l-2 0 l-2 0 l-2 0 l-2 1 l0 -1 l0 -1 l-1 1 l-1 1 l-3 0 l-2 0 l-3 2 l-2 1 l-2 0 l-2 -1 l0 1 l1 0 l-2 2 l-3 2 l-1 0 l0 0 l-3 2 l-3 2 l0 -1 l0 0 l2 -2 l1 -2 l-1 0 l-1 0 l-1 1 l0 1 l-3 2 l-3 1 l-4 2 l-3 2 l-5 3 l-5 3 l-3 3 l-2 3 l1 0 l1 0 l0 0 l1 0 l-1 2 l-2 2 l-1 0 l-1 0 l0 -2 l1 -2 l-1 1 l0 1 l-4 0 l-3 1 l0 2 l-1 2 l-2 0 l-2 0 l0 -1 l1 -2 l-2 1 l-2 1 l-1 2 l0 2 l-1 -1 l-1 -1 l0 1 l-1 1 l1 0 l1 1 l0 2 l0 2 l-1 -2 l-1 -2 l0 1 l-1 1 l0 3 l1 3 l-1 -2 l-1 -1 l-1 4 l-1 5 l-1 -1 l-1 -1 l1 -2 l1 -3 l-1 1 l-2 1 l1 -2 l0 -1 l-1 1 l-2 1 l0 -2 l0 -2 l-1 1 l-1 2 l-1 2 l-1 1 l-2 -2 l-2 -2 l1 -1 l0 -1 l-2 0 l-1 0 l0 -1 l1 -1 l2 -1 l2 -1 l1 -2 l1 -1 l0 -2 l0 -1 l1 -2 l1 -2 l2 -6 l1 -5 l2 -1 l2 -1 l-1 -1 l0 -1 l1 1 l2 0 l3 -4 l4 -4 l0 -1 l0 -1 l-1 0 l-1 0 l2 -3 l3 -3 l-1 -1 l0 -1 l0 0 l1 1 l1 -1 l2 -1 l6 -4 l6 -4 l0 1 l0 0 l-4 4 l-4 4 l0 1 l0 1 l2 -1 l2 -1 l-1 -1 l0 -1 l1 0 l1 0 l4 -2 l5 -3 l1 -1 l1 -1 l4 -3 l5 -2 l0 -1 l0 -1 l-1 0 l-1 0 l0 -1 l-1 -2 l2 -1 l1 -2 l-2 -1 l-2 -1 l-3 -3 l-3 -3 l-1 -2 l-1 -2 l-2 0 l-1 0 l2 -1 l2 -1 l-2 0 l-2 0 l1 -1 l0 -2 l-3 -4 l-4 -4 l1 0 l0 -1 l-1 0 l-1 0 l0 -1 l0 -2 l-2 -2 l-2 -2 l0 -1 l0 -1 l-1 -1 l-1 -1 l-2 -6 l-2 -5 l-1 -5 l0 -4 l-1 -7 l-2 -7 l1 0 l1 0 l-1 -2 l-1 -1 l1 -1 l1 0 l0 -2 l0 -1 l0 -8 l1 -8 l1 -3 l1 -2 l0 -1 l0 -1 l-1 1 l-1 0 l0 -1 l1 -2 l0 -1 l0 0 l1 1 l1 1 l0 -4 l0 -4 l1 -1 l1 -2 l0 -2 l-1 -2 l1 0 l1 1 l0 -2 l1 -1 l0 -1 l0 -1 l-2 2 l-2 2 l-2 5 l-3 6 l0 2 l-1 2 l-1 0 l0 -1 l1 -4 l1 -3 l3 -6 l2 -5 l3 -1 l2 -1 l0 -2 l0 -2 l1 0 l1 0 l0 -1 l0 -1 l2 -3 l2 -3 l0 -2 l1 -1 l1 -1 l2 0 l1 0 l1 0 l0 -2 l-1 -2 l1 1 l1 1 l6 -6 l6 -5 l1 -2 l2 -1 l1 0 l1 0 l3 -3 l4 -3 l0 -1 l0 -1 l2 -1 l3 0 l1 -1 l1 -1 l6 -2 l7 -2 l7 -1 l8 -2 l8 0 l8 1 l8 3 l9 2 l4 2 l5 2 l0 1 l1 1 l3 2 l4 2 l1 2 l2 2 l0 0 l1 1 l1 -1 l2 0 l5 7 l6 7 l3 3 l3 4 l2 -2 l2 -2 l1 2 l2 3 l0 -6 l-1 -5 l2 -5 l2 -5 l3 -7 l2 -7 l2 -4 l1 -4 l1 1 l2 0 l-1 0 l-1 -1 l2 -5 l2 -5 l1 -8 l2 -7 l2 -4 l1 -4 l1 0 l0 0 l1 1 l2 2 l-1 1 l0 1 l1 1 l2 2 l2 -1 l2 -1 l1 3 l2 4 l2 7 l1 8 l3 5 l2 5 l2 5 l1 6 l4 9 l4 9 l1 0 l0 1 l2 -3 l3 -3 l0 1 l1 0 l1 -2 l2 -2 l2 0 l1 0 l1 -1 l2 -2 l6 -3 l6 -4 l2 0 l2 0 l4 -2 l4 -2 l1 1 l1 0 l0 -1 l0 -1 l8 -1 l8 -1 l8 0 l9 1 l8 2 l8 1 l1 0 l1 1 l0 0 l1 0 l5 2 l6 2 l2 0 l2 1 l3 3 l4 4 l3 3 l4 3 l3 3 l3 3 l1 1 l0 2 l1 0 l1 0 l0 2 l1 3 l2 2 l2 2 l2 5 l3 5 l3 9 l3 9 l1 2 l1 1 l0 4 l0 4 l1 1 l1 2 l-1 0 l-1 -1 l0 2 l0 1 l1 0 l1 -1 l0 1 l0 1 l-1 0 l-1 0 l2 2 l2 1 l-2 0 l-1 -1 l0 1 l0 1 l1 0 l1 0 l0 2 l0 3 l-1 -2 l-1 -2 l0 4 l0 4 l-1 4 l-1 4 l0 3 l-1 3 l1 -2 l2 -2 l0 0 l0 1 l-2 6 l-2 5 l1 1 l1 0 l-1 3 l0 2 l-2 1 l-1 1 l0 2 l0 1 l1 0 l2 1 l1 4 l0 4 l-2 6 l-1 6 l-1 2 l-1 2 l-2 0 l-3 0 l-1 -2 l-2 -3 l0 -2 l1 -2 l-4 -1 l-4 0 l-2 2 l-2 3 l-2 -1 l-2 0 l-4 2 l-3 2 l0 1 l0 0 l1 -1 l2 0 l1 2 l1 2 l-2 1 l-2 1 l-3 0 l-3 0 l1 1 l1 1 l4 1 l5 2 l2 0 l3 0 l1 1 l2 1 l-1 -1 l0 -2 l0 0 l1 0 l2 2 l2 2 l2 0 l2 0 l0 1 l0 1 l5 2 l5 2 l1 2 l2 2 l0 -1 l0 -2 l5 5 l5 5 l3 1 l3 1 l4 4 l5 4 l0 4 l0 4 l1 1 l2 2 l2 1 l2 2 l1 0 l1 0 l0 1 l0 1 l1 0 l2 0 l-1 1 l0 2 l1 -1 l1 0 l0 2 l1 1 l0 0 l0 1 l-3 0 l-2 0 l-2 -2 l-2 -2 l0 1 l0 1 l2 3 l3 4 l0 1 l0 1 l2 2 l3 3 l0 -1 l1 0 l0 1 l0 2 l-2 0 l-1 1 l1 -1 l0 -1 l-1 0 l-2 1 l-1 -1 l-1 -1 l1 1 l0 2 l-1 0 l-1 0 l0 -1 l0 -1 l-1 0 l-1 0 l-2 -2 l-1 -1 l1 2 l0 2 l-1 0 l-1 -1 l-1 2 l0 2 l-2 0 l-2 0 l-1 1 l0 1 l0 10 l0 9 l0 0 l-1 0 l0 -2 z M 306 891 l0 -1 l0 0 l-1 0 l0 1 l-1 1 l1 0 l1 0 l0 -1 z M 691 880 l-4 -5 l-1 0 l0 1 l4 4 l3 5 l1 0 l1 0 l-4 -5 z M 624 838 l1 -1 l-2 0 l-1 -1 l-10 -1 l-10 0 l2 1 l2 1 l0 -1 l1 0 l0 1 l0 1 l5 0 l6 -1 l2 1 l3 1 l0 0 l1 0 l0 -1 z M 367 818 l-2 -1 l-5 -4 l-4 -4 l-1 0 l-1 0 l4 4 l4 4 l3 2 l4 2 l0 -1 l1 0 l-3 -2 z M 505 798 l1 -2 l0 0 l-1 0 l-1 2 l-1 2 l0 0 l1 0 l1 -2 z M 344 794 l-1 -1 l1 1 l0 2 l1 0 l0 -1 l-1 -1 z M 687 791 l0 -1 l0 -1 l-1 0 l-1 2 l-1 2 l1 0 l1 0 l1 -2 z M 342 790 l-1 -1 l1 1 l0 2 l1 0 l0 -1 l-1 -1 z M 428 789 l0 1 l5 0 l5 0 l0 -1 l-1 0 l3 -2 l2 -2 l-1 1 l0 2 l4 -2 l4 -2 l4 -4 l4 -4 l1 -3 l1 -3 l1 0 l1 0 l2 -5 l1 -4 l0 -8 l0 -8 l-2 -6 l-2 -6 l-4 -4 l-5 -5 l-4 -2 l-3 -1 l-9 0 l-8 0 l-4 0 l-3 1 l-4 2 l-3 1 l-4 3 l-3 4 l-3 4 l-3 5 l1 2 l0 1 l-1 0 l-2 1 l0 4 l0 5 l1 1 l2 1 l0 2 l0 1 l-2 2 l-2 3 l0 -2 l0 -1 l-1 0 l-2 0 l0 -2 l-1 -1 l1 -1 l0 -1 l-1 -1 l-1 0 l0 4 l1 4 l2 5 l3 5 l4 4 l4 4 l4 3 l4 3 l1 -1 l1 -1 l1 0 l1 1 l-1 1 l0 1 l1 0 l2 -1 l0 1 l0 1 l3 0 l4 1 l0 -1 l1 -1 l0 1 z M 338 786 l-1 -3 l0 -2 l0 -2 l1 3 l1 3 l1 0 l1 0 l0 -1 l-1 -1 l-2 -6 l-1 -5 l-1 -1 l-1 0 l0 -6 l-1 -5 l-1 -1 l-1 0 l-1 1 l0 2 l1 9 l1 9 l2 4 l3 5 l1 0 l0 0 l-1 -3 z M 592 788 l-1 0 l-1 0 l-1 1 l1 0 l2 0 l0 -1 z M 576 785 l-1 -2 l-4 -1 l-4 -1 l-2 -1 l-1 0 l3 2 l3 3 l3 1 l4 1 l0 -1 l0 0 l-1 -1 z M 610 784 l2 -1 l-4 1 l-3 0 l-2 1 l-1 1 l3 0 l3 0 l2 -2 z M 603 781 l5 -1 l5 -4 l6 -3 l2 -3 l3 -2 l2 -5 l2 -4 l1 -8 l0 -9 l-1 -4 l-1 -3 l-4 -7 l-4 -6 l-4 -2 l-3 -3 l-3 -1 l-3 0 l-7 -1 l-6 -2 l-6 2 l-6 1 l-5 3 l-4 2 l-4 4 l-4 4 l-1 3 l-2 3 l0 -3 l0 -2 l2 -3 l2 -3 l0 0 l1 0 l0 -1 l0 -1 l2 -2 l1 -1 l-1 -1 l-1 0 l-3 3 l-3 4 l-2 3 l-1 3 l1 1 l1 0 l0 1 l0 1 l-1 -1 l-1 0 l0 2 l1 2 l-1 0 l-1 -1 l0 2 l-1 2 l1 0 l0 1 l1 4 l0 5 l1 3 l1 4 l2 5 l3 6 l4 5 l5 6 l2 1 l2 0 l5 1 l5 2 l5 0 l6 -1 l4 -1 z M 615 781 l1 -2 l0 0 l-1 0 l-1 2 l-2 2 l0 0 l1 0 l2 -2 z M 399 776 l-2 -1 l-3 -6 l-3 -6 l0 1 l0 1 l2 3 l1 4 l3 3 l2 3 l1 0 l0 0 l-1 -2 z M 391 766 l-3 -7 l-1 0 l0 1 l1 4 l1 5 l2 3 l1 3 l1 0 l0 -1 l-2 -8 z M 557 764 l-1 -2 l0 1 l-1 1 l1 2 l1 3 l1 -2 l0 -1 l-1 -2 z M 334 745 l0 -3 l1 0 l1 -1 l0 -6 l1 -6 l1 -2 l2 -2 l0 -1 l0 -1 l1 0 l1 0 l1 -3 l0 -3 l1 1 l1 2 l0 -3 l-1 -2 l2 1 l2 0 l-2 -1 l-1 -2 l1 1 l2 0 l1 -2 l0 -1 l4 -6 l4 -5 l8 -8 l7 -7 l0 -1 l0 -1 l1 1 l2 1 l0 -1 l-1 -1 l3 -3 l4 -2 l1 0 l1 0 l0 -1 l0 -1 l-1 1 l-2 0 l0 0 l0 -1 l4 -2 l5 -2 l4 -2 l5 -2 l0 -1 l0 -1 l-2 0 l-1 1 l-5 1 l-5 1 l-1 1 l0 1 l-2 -1 l-1 0 l0 1 l1 1 l-2 0 l-2 -1 l1 1 l0 1 l-1 0 l-1 -1 l-2 1 l-1 2 l-4 3 l-4 2 l-2 0 l-1 -1 l0 1 l1 1 l-2 1 l-1 1 l0 -1 l0 0 l-3 3 l-3 4 l-2 1 l-1 2 l1 0 l1 1 l-1 0 l-1 0 l-3 2 l-3 2 l0 1 l0 1 l-2 3 l-3 2 l1 1 l0 1 l-1 0 l-1 0 l0 2 l-1 3 l-2 4 l-1 4 l-2 3 l-1 3 l-1 5 l-1 5 l0 6 l-1 6 l1 2 l0 1 l2 -1 l1 -1 l0 -3 z M 433 717 l-1 0 l-1 0 l-1 1 l2 0 l3 0 l-2 -1 z M 574 713 l0 0 l-2 2 l-3 1 l1 1 l0 1 l2 -2 l3 -2 l-1 -1 z M 497 688 l-1 -1 l0 3 l1 4 l0 2 l0 3 l1 -5 l0 -4 l-1 -2 z M 542 685 l0 -2 l-1 1 l-1 2 l-1 2 l0 2 l1 -1 l2 -1 l0 -3 z M 381 681 l1 -1 l-1 1 l-2 0 l0 1 l0 0 l1 0 l1 0 l0 -1 z M 385 675 l1 -1 l-1 1 l-1 0 l0 1 l0 1 l0 0 l1 0 l0 -2 z M 376 670 l0 -1 l-2 1 l-2 1 l0 1 l0 1 l2 -1 l2 -1 l0 -1 z M 450 669 l-3 -2 l-3 -2 l-3 -1 l-6 -1 l-6 0 l5 2 l5 1 l3 1 l4 1 l0 1 l1 1 l2 1 l2 1 l1 0 l1 0 l-3 -3 z M 587 669 l3 0 l-2 1 l-1 1 l1 0 l2 0 l1 -2 l1 -1 l1 0 l2 1 l0 -1 l0 -1 l1 1 l0 1 l2 0 l2 0 l1 -1 l0 -2 l1 1 l1 0 l0 -1 l0 -1 l-3 0 l-2 0 l1 -1 l0 -1 l-2 0 l-2 0 l1 1 l2 1 l-5 0 l-4 -1 l2 1 l3 1 l-5 -1 l-4 0 l0 1 l0 1 l-2 -1 l-2 0 l1 1 l1 1 l-3 0 l-2 1 l1 1 l1 1 l3 -1 l2 -1 l2 0 z M 383 667 l3 -1 l1 0 l2 0 l2 -1 l2 -2 l-6 2 l-6 1 l-2 0 l-2 0 l0 2 l0 2 l2 -1 l2 0 l2 -2 z M 611 664 l-1 0 l-2 0 l-1 1 l3 0 l3 0 l-2 -1 z M 605 663 l-2 0 l-2 0 l-1 1 l3 0 l4 0 l-2 -1 z M 420 661 l0 -1 l8 0 l9 1 l-2 -1 l-1 -1 l-1 1 l-1 0 l0 -1 l-1 -1 l-2 -1 l-2 0 l-7 -1 l-6 -1 l-5 1 l-4 0 l-3 1 l-3 1 l-4 1 l-3 0 l-1 1 l-1 0 l0 1 l0 1 l1 0 l1 -1 l8 1 l9 1 l5 0 l5 0 l1 -2 z M 389 661 l-1 0 l-1 0 l-1 1 l1 0 l2 0 l0 -1 z M 441 662 l0 -1 l-2 0 l-2 -1 l0 1 l0 1 l2 0 l2 0 l0 0 z"/>
<path d="M 347 709 l0 -1 l2 -2 l2 -2 l-1 3 l-2 3 l-1 0 l0 0 l0 -1 z"/>
<path d="M 351 702 l1 -1 l1 -1 l1 0 l-1 1 l0 2 l-1 0 l-1 0 l0 -1 z"/>
<path d="M 358 695 l0 -1 l2 -2 l1 -2 l0 1 l0 1 l-1 2 l-2 2 l0 -1 z"/>
<path d="M 363 690 l0 -1 l3 -3 l3 -3 l1 0 l1 0 l-1 1 l0 1 l-4 2 l-3 3 l0 0 z"/>
<path d="M 378 678 l0 -1 l1 0 l0 0 l0 1 l0 1 l-1 0 l-1 0 l1 -1 z"/>
<path d="M 317 910 l0 -1 l2 -3 l2 -2 l0 0 l1 0 l-1 2 l0 2 l-2 1 l-2 2 l0 -1 z"/>
<path d="M 738 902 l-1 -1 l0 -2 l0 -1 l1 0 l1 0 l1 2 l1 3 l-2 0 l-1 1 l0 -2 z"/>
<path d="M 322 902 l0 -1 l1 1 l1 0 l0 1 l0 0 l-1 0 l-1 0 l0 -1 z"/>
<path d="M 327 895 l-1 -1 l1 0 l0 1 l3 -3 l2 -2 l0 -1 l0 -1 l3 -2 l3 -1 l-1 -1 l0 -1 l1 1 l2 0 l-2 2 l-2 2 l-1 3 l-1 3 l-2 0 l-1 0 l0 2 l-1 1 l-1 0 l-2 0 l0 -2 z"/>
<path d="M 733 883 l-1 -1 l0 -1 l1 0 l1 0 l0 1 l0 1 l-1 1 l0 -1 z"/>
<path d="M 368 864 l1 -1 l-1 0 l-1 -1 l1 0 l1 1 l0 1 l0 0 l-1 1 l-1 0 l1 -1 z"/>
<path d="M 406 853 l2 0 l2 0 l2 1 l-4 0 l-3 0 l1 -1 z"/>
<path d="M 412 853 l0 -1 l1 0 l0 1 l3 -1 l4 -1 l1 -2 l1 -1 l3 0 l3 0 l5 -2 l6 -2 l0 -1 l1 -1 l1 1 l1 2 l0 0 l0 1 l-1 0 l-2 0 l0 1 l0 1 l-3 2 l-2 1 l-5 1 l-5 0 l-2 -1 l-1 -1 l0 1 l0 1 l-3 0 l-2 1 l-2 1 l-2 0 l0 -1 z"/>
<path d="M 347 838 l0 -1 l1 -1 l2 -1 l1 0 l1 0 l-2 1 l-2 1 l1 1 l1 1 l-1 0 l-2 1 l0 -2 z"/>
<path d="M 696 833 l-6 -4 l-2 -1 l-1 -1 l2 1 l3 1 l6 3 l5 4 l0 0 l0 1 l0 0 l0 0 l-7 -4 z"/>
<path d="M 548 822 l-1 -1 l1 0 l1 0 l0 1 l0 1 l0 0 l-1 0 l0 -1 z"/>
<path d="M 323 763 l0 -1 l0 -1 l1 0 l0 1 l1 2 l0 0 l-1 0 l-1 -1 z"/>
<path d="M 322 754 l0 -5 l0 -1 l0 -1 l0 -4 l0 -3 l1 0 l0 1 l1 9 l0 10 l0 0 l-1 0 l-1 -6 z"/>
<path d="M 340 688 l-1 0 l1 -2 l1 -2 l2 0 l1 -1 l-1 1 l-1 2 l1 0 l0 1 l-1 0 l-1 0 l1 1 l2 1 l-2 0 l-2 0 l0 -1 z"/>
<path d="M 691 686 l0 -2 l1 -1 l1 0 l1 1 l1 1 l-2 1 l-2 1 l0 -1 z"/>
<path d="M 483 678 l-1 -1 l0 -1 l1 0 l1 0 l2 1 l0 1 l0 2 l-1 0 l-1 0 l-1 -2 z"/>
<path d="M 336 657 l0 -1 l2 -4 l2 -3 l1 1 l1 0 l0 -1 l0 -1 l2 0 l3 0 l-4 2 l-3 2 l-1 1 l-1 2 l0 2 l1 2 l-2 0 l-1 0 l0 -2 z"/>
<path d="M 653 657 l-1 -2 l-1 1 l-1 1 l-1 -2 l-1 -2 l-2 1 l-2 0 l0 -1 l0 -1 l-2 1 l-2 0 l0 -1 l-1 -2 l1 0 l1 0 l0 -1 l0 -1 l-1 0 l0 1 l-2 -1 l-2 -2 l-4 0 l-3 -1 l-5 -1 l-4 0 l-1 1 l-1 1 l-2 -3 l-3 -2 l-1 -1 l0 0 l-2 0 l-2 -1 l-7 -3 l-7 -3 l-1 1 l-1 0 l0 -1 l0 -1 l3 -1 l3 -2 l0 -2 l0 -3 l3 0 l2 0 l0 -2 l-1 -2 l1 -6 l2 -5 l2 -6 l3 -5 l2 -1 l3 -1 l3 2 l4 2 l1 2 l1 2 l1 -1 l1 0 l1 2 l1 1 l0 -3 l1 -4 l3 1 l2 0 l0 -1 l0 -1 l-3 -4 l-3 -5 l0 -5 l-1 -6 l-1 -2 l-1 -2 l1 -1 l1 -1 l0 -3 l0 -2 l-2 -1 l-2 -2 l1 1 l1 0 l-1 -3 l0 -2 l-1 -1 l-1 -1 l-1 -5 l-2 -4 l1 -3 l1 -2 l-1 -1 l-2 -1 l0 -1 l0 -1 l-2 -2 l-2 -2 l-3 -1 l-2 0 l0 -3 l0 -2 l2 0 l1 0 l2 3 l2 2 l1 0 l2 0 l-2 -1 l-2 -1 l0 -2 l0 -1 l-2 0 l-1 0 l0 -2 l0 -2 l0 -3 l-1 -2 l-7 -4 l-7 -5 l-5 -1 l-5 -2 l-3 -2 l-3 -2 l-4 -4 l-4 -4 l1 0 l0 -1 l-1 -2 l-1 -3 l-1 1 l-1 0 l1 1 l2 1 l-3 0 l-3 0 l0 -1 l0 -1 l-4 -1 l-4 -1 l-3 1 l-2 1 l-2 -1 l-2 0 l1 1 l1 0 l0 1 l0 1 l-2 0 l-1 1 l-3 -2 l-2 -1 l0 -1 l0 -1 l2 1 l3 0 l-2 -1 l-1 -2 l1 -1 l1 0 l-2 0 l-2 1 l1 -1 l1 -2 l-2 -2 l-2 -2 l0 -1 l0 -1 l-1 0 l0 0 l-3 1 l-4 2 l-2 2 l-2 3 l-1 -1 l-1 -1 l0 -1 l1 -2 l-2 0 l-1 0 l0 2 l0 2 l0 0 l0 1 l-1 0 l-1 0 l0 -2 l0 -1 l-1 0 l-2 1 l-1 -1 l-1 -1 l2 -1 l2 0 l-2 -2 l-1 -1 l-3 0 l-2 0 l3 1 l3 1 l-4 0 l-4 1 l-6 -1 l-6 -2 l-3 -1 l-2 -2 l-3 -3 l-3 -2 l-2 -3 l-1 -3 l-2 1 l-2 0 l0 -1 l0 -1 l2 0 l2 0 l-2 -2 l-2 -1 l0 -1 l0 -1 l-2 -4 l-2 -5 l-1 -1 l-1 0 l1 -1 l0 -1 l-1 0 l-1 0 l0 -9 l1 -8 l0 -2 l1 -1 l1 -3 l1 -3 l1 -3 l1 -2 l4 -5 l4 -4 l3 -2 l4 -2 l4 0 l5 0 l2 -2 l1 -1 l-1 -1 l-1 -2 l4 -4 l4 -4 l3 0 l3 0 l0 -1 l0 -2 l1 0 l1 0 l0 -2 l-1 -2 l0 -2 l-1 -1 l1 -1 l0 -2 l-2 0 l-2 -1 l0 -1 l0 -1 l3 0 l2 1 l0 -1 l0 -1 l-1 0 l-1 0 l-2 -3 l-3 -2 l-6 3 l-7 2 l-3 2 l-3 1 l-1 2 l-1 1 l-2 -1 l-1 0 l0 1 l0 1 l-5 2 l-4 2 l-4 0 l-4 1 l-2 -2 l-2 -2 l-3 0 l-2 1 l0 -1 l-1 -1 l-4 3 l-3 3 l0 1 l1 1 l-2 0 l-2 1 l-1 2 l-2 3 l-1 6 l-1 7 l-1 2 l0 2 l-1 1 l0 0 l0 8 l0 7 l-2 3 l-1 2 l-3 4 l-3 3 l0 0 l0 1 l-1 2 l-1 2 l2 1 l2 1 l0 2 l-1 2 l2 0 l1 1 l-1 1 l0 1 l-4 0 l-3 -1 l0 2 l-1 1 l-2 0 l-2 0 l0 3 l-1 3 l1 2 l0 3 l-1 1 l-1 1 l-3 0 l-3 1 l0 -1 l0 -1 l-2 -3 l-3 -3 l-1 0 l-1 1 l1 2 l0 2 l-2 2 l-1 2 l1 1 l0 1 l-2 0 l-2 -1 l-1 1 l0 1 l-2 0 l-2 0 l0 1 l-1 1 l1 4 l1 5 l-1 1 l-1 1 l1 1 l1 0 l-1 1 l0 2 l4 2 l4 2 l3 5 l4 5 l-1 1 l0 0 l1 0 l1 -1 l0 1 l0 1 l1 0 l1 -1 l0 2 l1 2 l1 0 l2 -1 l1 3 l1 3 l2 0 l2 1 l0 2 l1 2 l1 -1 l1 0 l0 -2 l-1 -1 l3 2 l3 1 l-1 1 l0 1 l1 0 l1 1 l0 -1 l0 -1 l2 2 l2 2 l3 -1 l3 0 l1 -2 l1 -1 l4 2 l5 1 l3 3 l3 3 l3 0 l3 1 l2 1 l2 0 l-1 -2 l0 -1 l1 1 l1 1 l2 0 l2 1 l0 1 l1 0 l1 0 l1 0 l0 2 l0 1 l1 0 l1 0 l4 0 l4 1 l0 1 l0 1 l-1 -1 l-1 0 l0 1 l1 1 l7 -1 l7 0 l3 -1 l3 -1 l5 1 l5 1 l2 2 l3 1 l0 1 l1 1 l0 -1 l1 0 l0 1 l0 1 l1 0 l2 0 l1 3 l1 4 l1 -1 l1 -1 l2 1 l2 0 l3 5 l2 6 l0 1 l0 1 l-1 0 l-1 -1 l0 1 l0 1 l1 0 l1 0 l0 6 l-1 5 l1 0 l1 0 l0 2 l0 2 l-2 2 l-3 2 l0 2 l0 1 l-1 0 l-1 -1 l0 3 l-1 2 l-4 0 l-4 0 l0 1 l-1 1 l-3 1 l-3 0 l0 1 l0 1 l-1 -1 l-1 0 l-3 2 l-2 1 l-3 1 l-2 0 l-3 1 l-3 1 l-2 -2 l-1 -1 l-3 2 l-2 3 l-2 1 l-2 2 l-1 1 l-2 1 l-1 0 l-1 0 l1 1 l0 1 l-1 0 l-1 0 l-1 0 l-1 0 l-3 4 l-4 3 l-3 1 l-3 0 l-1 1 l-1 2 l-2 -3 l-1 -2 l-3 1 l-2 0 l1 -1 l2 -1 l-2 0 l-1 0 l0 1 l-1 1 l-2 -1 l-2 0 l0 1 l1 2 l-1 -1 l0 -1 l-3 0 l-3 0 l-2 1 l-2 1 l-4 1 l-4 0 l-4 2 l-4 2 l-3 0 l-2 1 l-2 2 l-2 1 l0 3 l1 3 l-3 0 l-3 0 l-1 2 l0 1 l-2 0 l-2 0 l-6 2 l-6 1 l-6 3 l-6 2 l-4 1 l-3 0 l-7 4 l-7 3 l0 1 l0 1 l-2 0 l-1 0 l-1 1 l0 2 l-1 1 l-1 1 l-1 0 l-1 0 l0 -1 l1 0 l-3 -2 l-2 -1 l-4 0 l-3 1 l-4 -4 l-3 -4 l-1 1 l-1 0 l0 -1 l0 0 l1 -2 l2 -2 l1 0 l2 0 l0 -1 l0 -1 l-2 0 l-1 1 l-2 1 l-1 1 l-2 -1 l-2 -2 l0 0 l-1 0 l-2 -2 l-2 -2 l-2 0 l-1 0 l0 -1 l0 -1 l-1 0 l-2 0 l0 -1 l0 -2 l-2 -1 l-1 -2 l-2 -1 l-1 -2 l-2 -1 l-2 -1 l-2 -4 l-3 -4 l1 0 l2 1 l-2 -1 l-2 -1 l0 -2 l-1 -2 l-2 0 l-1 0 l1 -1 l1 -1 l-5 -5 l-5 -5 l0 -1 l0 -2 l-2 -1 l-2 0 l1 -1 l0 -1 l-1 0 l-1 0 l0 -1 l0 0 l-2 -5 l-2 -5 l-2 -3 l-2 -3 l1 0 l1 0 l-2 -1 l-1 0 l-1 -2 l-1 -2 l1 2 l0 2 l-1 0 l-1 0 l-3 -9 l-4 -8 l-2 -2 l-1 -2 l1 3 l0 4 l-1 3 l0 3 l-1 -1 l-1 -2 l0 -9 l-1 -10 l-1 -1 l-1 -1 l0 -2 l0 -2 l-2 0 l-2 0 l-1 -1 l-1 -2 l-3 1 l-3 0 l0 -4 l-1 -4 l1 -2 l1 -1 l1 -5 l0 -4 l0 -5 l0 -4 l0 -12 l0 -11 l1 -5 l0 -5 l1 -2 l0 -2 l2 -7 l1 -7 l1 -8 l1 -8 l0 -3 l0 -2 l-1 0 l-1 1 l0 -1 l0 -1 l1 0 l2 -1 l1 -7 l2 -7 l4 -10 l4 -9 l4 -5 l3 -5 l5 -7 l6 -6 l2 -3 l3 -3 l3 -4 l4 -3 l2 -3 l2 -2 l2 0 l1 1 l0 -1 l0 -1 l1 0 l1 0 l0 -1 l0 -1 l1 0 l0 1 l2 -2 l1 -1 l2 0 l1 0 l-8 6 l-7 5 l-6 6 l-5 5 l0 1 l0 1 l-1 0 l-1 -1 l-3 6 l-3 6 l-4 8 l-5 9 l0 2 l-1 2 l1 0 l0 0 l1 -2 l1 -2 l2 -4 l2 -3 l6 -7 l5 -7 l5 -5 l4 -4 l1 0 l1 0 l0 -2 l1 -2 l1 0 l1 0 l0 -2 l1 -1 l0 -1 l0 -1 l3 -2 l2 -3 l1 0 l1 1 l1 -1 l1 -2 l-1 0 l0 -1 l1 -1 l2 -1 l2 1 l1 1 l0 -1 l0 -1 l8 -3 l9 -3 l2 -2 l2 -2 l0 -1 l0 -1 l-1 0 l-1 0 l-2 0 l-1 0 l2 -1 l3 -1 l4 -5 l3 -4 l3 -4 l4 -3 l4 -1 l5 -2 l2 -1 l3 -1 l1 -3 l1 -3 l1 0 l1 0 l0 -1 l-1 -1 l2 0 l2 0 l-2 -1 l-1 0 l1 -1 l0 -1 l-1 0 l-2 0 l1 -1 l0 -1 l-1 -1 l-1 -1 l-1 -2 l0 -2 l-4 -11 l-5 -11 l-3 -4 l-2 -4 l-5 -6 l-4 -5 l-7 -7 l-6 -6 l-3 -1 l-3 -1 l0 -1 l0 -1 l0 -2 l0 -1 l-5 -3 l-4 -3 l1 -2 l2 -1 l-1 0 l0 -1 l1 0 l2 0 l4 0 l4 0 l-1 0 l0 1 l1 0 l1 0 l3 -2 l3 -2 l1 0 l1 0 l2 0 l2 -1 l0 -2 l0 -1 l1 0 l1 0 l1 1 l0 1 l4 0 l3 0 l0 1 l1 1 l6 2 l5 1 l1 -1 l2 -2 l2 0 l2 0 l0 1 l0 1 l3 3 l3 3 l2 2 l3 2 l1 0 l2 1 l0 0 l1 0 l1 1 l1 1 l2 0 l3 0 l0 2 l1 1 l1 0 l1 -1 l5 3 l6 3 l0 1 l1 1 l2 1 l2 1 l0 0 l1 0 l0 -1 l-1 -1 l3 1 l2 0 l0 -1 l0 -1 l2 0 l2 1 l0 -2 l0 -2 l2 -2 l2 -1 l0 -5 l0 -5 l-2 -6 l-1 -6 l0 -2 l0 -1 l-1 -1 l-1 -1 l-1 -8 l-1 -8 l-1 -3 l0 -3 l-1 -3 l0 -2 l-2 1 l-2 0 l-1 -2 l-1 -3 l-3 -3 l-2 -3 l-3 -1 l-2 -2 l-5 -1 l-5 -1 l-11 0 l-11 -1 l-7 -1 l-6 0 l-2 -1 l-2 0 l-10 -3 l-10 -3 l-2 -2 l-2 -2 l0 -2 l0 -2 l2 0 l2 0 l0 1 l0 1 l6 4 l5 3 l1 0 l0 -1 l-3 -2 l-3 -2 l1 0 l0 -1 l-2 -2 l-3 -2 l-3 -3 l-3 -3 l-1 0 l0 0 l-2 -3 l-2 -2 l1 0 l2 0 l-3 -2 l-2 -2 l1 -1 l1 -1 l6 2 l6 1 l1 -1 l1 -1 l5 0 l6 0 l3 1 l4 2 l8 2 l8 2 l4 0 l4 1 l0 -1 l0 0 l-3 -5 l-3 -4 l-3 -7 l-2 -6 l0 -5 l0 -4 l1 3 l1 4 l0 1 l1 0 l0 -8 l0 -9 l0 -3 l1 -3 l1 0 l1 0 l0 4 l-1 3 l1 0 l1 -1 l0 2 l1 1 l0 1 l0 1 l-1 -2 l-1 -1 l0 1 l0 2 l2 0 l1 0 l0 -2 l0 -1 l0 -2 l1 -2 l0 -1 l1 0 l-1 -4 l0 -4 l-2 2 l-2 2 l-1 0 l0 -1 l3 -3 l3 -2 l0 5 l1 5 l2 1 l3 1 l0 1 l1 2 l1 -1 l1 0 l0 1 l-1 1 l2 4 l2 5 l4 4 l4 4 l5 7 l6 6 l1 0 l2 0 l1 3 l1 2 l1 0 l2 0 l4 4 l5 4 l2 1 l2 0 l1 -1 l1 -2 l1 1 l1 0 l0 -1 l0 -1 l3 -3 l3 -4 l1 0 l2 0 l2 -2 l2 -1 l5 -5 l6 -5 l1 -5 l1 -4 l2 -3 l2 -2 l2 1 l2 0 l0 1 l0 1 l2 0 l1 0 l0 2 l0 2 l0 1 l0 0 l1 1 l1 1 l0 3 l1 3 l0 0 l1 0 l0 5 l-1 6 l-1 3 l-1 3 l-4 3 l-3 4 l-5 1 l-4 2 l-3 3 l-3 3 l-2 3 l-2 4 l0 1 l0 1 l2 -1 l1 -1 l1 1 l1 2 l0 2 l0 2 l0 2 l0 3 l-2 1 l-1 2 l1 1 l0 1 l1 4 l1 5 l0 3 l0 4 l1 7 l1 7 l0 5 l1 5 l1 3 l0 3 l2 7 l1 7 l1 0 l0 -1 l0 -3 l1 -3 l2 -5 l1 -5 l7 -13 l7 -12 l0 -1 l0 0 l7 -10 l7 -9 l2 0 l2 1 l1 -1 l0 -1 l-1 -1 l-1 -1 l1 0 l2 0 l0 -1 l1 -1 l-3 1 l-2 0 l0 -1 l0 -1 l5 -1 l5 0 l4 -1 l4 0 l2 3 l3 3 l2 0 l2 0 l0 1 l0 1 l2 2 l2 2 l2 3 l3 4 l7 5 l6 5 l0 2 l-1 1 l1 0 l2 0 l-1 1 l0 2 l3 5 l3 4 l1 0 l0 0 l-1 -2 l-1 -2 l-1 -1 l-1 0 l-1 -3 l-1 -2 l1 1 l2 1 l3 6 l4 5 l0 0 l1 -1 l0 -1 l0 0 l1 -3 l1 -2 l1 -7 l0 -6 l1 -6 l0 -6 l-1 0 l-1 0 l0 2 l-1 1 l-1 -1 l-1 0 l1 -8 l0 -8 l1 0 l1 0 l-1 5 l0 5 l2 2 l1 1 l0 -9 l-1 -9 l1 1 l1 2 l1 -2 l1 -1 l1 1 l1 2 l0 -2 l0 -2 l1 0 l1 0 l0 -1 l0 -1 l-4 -2 l-4 -2 l-10 -3 l-10 -3 l-3 -3 l-2 -3 l-2 -5 l-2 -4 l0 -6 l0 -5 l3 -6 l3 -6 l0 4 l0 5 l1 -2 l0 -2 l2 2 l2 3 l0 -3 l0 -2 l1 2 l1 2 l0 -2 l0 -1 l1 -2 l0 -2 l-1 -2 l0 -2 l-2 -1 l-2 0 l0 -1 l0 -1 l2 0 l2 1 l1 1 l1 1 l1 2 l1 3 l0 2 l0 3 l5 5 l5 5 l6 2 l6 2 l6 0 l5 0 l4 -3 l4 -3 l1 0 l1 0 l0 1 l-1 1 l2 1 l1 2 l3 -3 l3 -3 l4 -7 l5 -7 l3 -4 l3 -4 l1 -1 l1 0 l2 -4 l2 -4 l1 -2 l0 -2 l1 -1 l1 -1 l0 3 l-1 3 l-1 1 l0 2 l4 -2 l4 -2 l-1 -3 l0 -3 l-1 -1 l-1 0 l0 -1 l0 -1 l1 0 l2 0 l2 4 l2 5 l1 2 l0 2 l1 1 l0 2 l1 6 l0 6 l-4 8 l-4 8 l-2 2 l-3 3 l0 1 l0 2 l3 -1 l4 0 l7 -3 l8 -2 l0 -1 l0 -1 l1 0 l1 1 l4 -3 l5 -3 l0 -1 l1 -1 l3 0 l4 -1 l1 1 l1 1 l3 0 l4 1 l3 -2 l4 -1 l4 0 l5 1 l-1 3 l0 3 l-2 4 l-3 3 l-1 0 l-2 0 l0 2 l-1 3 l-2 2 l-2 3 l-6 3 l-6 4 l-9 2 l-9 3 l-9 1 l-8 1 l-2 0 l-2 1 l-7 0 l-6 1 l0 1 l1 2 l8 0 l8 0 l6 -2 l5 -1 l0 2 l0 1 l-3 1 l-2 1 l-4 1 l-3 0 l-5 1 l-4 1 l-5 -2 l-5 -1 l-1 1 l-1 0 l0 2 l0 1 l-1 0 l-1 0 l0 -2 l1 -2 l-1 0 l-1 1 l0 0 l0 1 l-2 0 l-2 0 l-1 3 l-2 3 l0 3 l-1 3 l-3 9 l-3 10 l-1 13 l-1 13 l1 2 l2 3 l0 1 l0 1 l-1 -2 l-1 -2 l-1 0 l-1 0 l0 3 l1 3 l1 2 l1 2 l1 0 l1 0 l2 -2 l3 -2 l2 -3 l3 -2 l1 0 l1 0 l0 -1 l0 -1 l6 -4 l6 -4 l2 0 l2 0 l1 -1 l1 -1 l9 -4 l9 -5 l2 0 l2 0 l-2 2 l-2 1 l4 0 l4 0 l3 0 l3 0 l1 -2 l2 -1 l0 -1 l0 -1 l-2 0 l-1 1 l1 -1 l1 -1 l3 0 l4 1 l-3 0 l-2 1 l0 1 l0 1 l3 0 l3 -1 l0 1 l0 1 l-2 1 l-1 1 l1 0 l1 0 l1 -1 l2 0 l-1 -1 l0 -1 l2 -1 l2 0 l0 -1 l0 -1 l2 0 l3 -1 l2 1 l3 1 l2 -1 l2 -1 l3 1 l3 2 l1 1 l0 1 l-1 0 l-2 0 l-2 2 l-1 2 l-2 0 l-1 0 l-9 9 l-8 8 l-2 0 l-1 -1 l-1 2 l-2 2 l1 1 l0 1 l-2 1 l-2 0 l1 1 l0 1 l-1 0 l-1 0 l0 2 l0 1 l-1 -1 l-1 0 l0 1 l0 2 l-2 2 l-2 2 l-2 5 l-2 4 l-1 2 l0 3 l-1 6 l-1 6 l1 0 l0 0 l3 -5 l2 -5 l1 1 l0 2 l-2 2 l-1 1 l0 0 l1 0 l-1 3 l-2 3 l1 0 l1 0 l1 -4 l2 -3 l1 0 l0 1 l-1 3 l-2 2 l0 1 l1 1 l3 0 l4 1 l2 -4 l1 -3 l2 0 l1 0 l1 3 l1 3 l2 1 l1 1 l0 1 l0 2 l0 3 l0 4 l-3 1 l-2 1 l-1 -1 l-1 -1 l0 1 l0 2 l2 1 l2 1 l2 5 l2 5 l1 0 l1 1 l0 1 l-1 0 l3 4 l3 4 l2 4 l2 5 l3 1 l2 1 l1 0 l2 0 l3 3 l3 4 l0 0 l0 1 l9 9 l9 9 l6 8 l5 7 l-1 1 l0 1 l1 0 l1 -1 l5 7 l4 7 l1 0 l1 0 l3 3 l4 3 l-1 0 l0 1 l1 1 l2 2 l0 0 l0 1 l1 3 l1 3 l0 0 l1 1 l4 11 l5 11 l0 1 l0 2 l2 3 l1 3 l1 0 l1 0 l2 2 l1 3 l-1 1 l-2 2 l-1 0 l-1 0 l0 3 l1 3 l1 0 l1 0 l0 1 l-1 1 l1 11 l2 12 l0 10 l0 10 l0 1 l-1 1 l0 6 l-1 7 l-2 6 l-2 6 l-1 4 l-1 5 l0 0 l0 1 l-1 0 l-1 0 l0 2 l-1 3 l-2 8 l-3 8 l-5 9 l-6 10 l1 0 l1 0 l0 2 l-1 2 l1 0 l1 0 l-1 3 l-2 3 l-1 0 l-1 0 l0 2 l0 1 l-1 1 l-2 0 l1 3 l0 4 l-5 5 l-5 5 l-1 0 l0 -1 l1 0 l1 0 l0 -1 l0 -2 l-1 0 l-1 0 l-1 2 l0 2 l-2 -1 l-1 0 l0 1 l0 2 l0 0 l0 1 l-2 0 l-1 0 l-2 1 l-1 2 l0 1 l0 1 l-1 0 l-2 0 l1 1 l0 2 l-9 4 l-8 4 l-4 3 l-3 2 l-1 -1 l-1 0 l1 1 l0 2 l-1 0 l-1 0 l-1 0 l-1 0 l0 1 l0 1 l-4 2 l-4 3 l-2 -1 l-1 0 l1 1 l0 2 l-1 0 l-2 0 l-1 -1 l-1 -1 l-1 2 l-1 1 l1 1 l1 0 l0 1 l0 2 l-2 1 l-3 1 l0 1 l0 1 l0 1 l0 1 l-1 -2 l-1 -1 l-1 1 l0 1 l-3 0 l-3 0 l-1 -2 z M 650 653 l1 -1 l-1 0 l-1 -1 l0 2 l0 1 l1 0 l0 0 l0 -1 z M 665 653 l0 -1 l1 1 l1 0 l0 -1 l-1 -1 l-2 0 l-1 0 l-2 2 l-1 1 l2 0 l2 0 l1 -1 z M 668 645 l3 -1 l1 0 l2 1 l1 -2 l1 -1 l-1 0 l0 -1 l-2 1 l-1 1 l-4 0 l-4 1 l-2 1 l-1 2 l2 0 l3 0 l2 -2 z M 680 641 l-1 0 l-1 0 l-1 1 l2 0 l3 0 l-2 -1 z M 728 609 l0 -1 l3 -2 l2 -3 l0 -2 l0 -1 l-1 1 l0 1 l-3 3 l-3 3 l0 1 l0 1 l1 0 l1 0 l0 -1 z M 737 589 l2 -4 l0 0 l0 -1 l-5 7 l-4 7 l2 -3 l3 -2 l2 -4 z M 618 532 l0 -1 l-1 0 l-1 0 l1 1 l0 1 l1 0 l0 0 l0 -1 z M 267 500 l-1 -1 l0 2 l0 3 l1 -2 l0 -1 l0 -1 z M 265 491 l1 -2 l-1 1 l-1 0 l1 -1 l1 -1 l0 -4 l0 -3 l-1 -3 l0 -2 l-1 0 l-1 0 l0 4 l0 5 l0 3 l-1 4 l1 0 l0 1 l1 0 l0 0 l1 -2 z M 557 485 l-1 -1 l-1 0 l-1 0 l1 1 l0 2 l2 -1 l1 0 l-1 -1 z M 409 461 l0 -1 l1 -3 l0 -2 l-2 1 l-1 0 l0 -1 l1 -1 l-2 1 l-1 2 l1 2 l1 3 l1 0 l1 0 l0 -1 z M 286 428 l0 -2 l1 1 l1 0 l0 -1 l0 -2 l-1 0 l-1 0 l-1 2 l-2 2 l0 1 l0 1 l1 0 l1 0 l1 -2 z M 273 419 l1 -4 l-1 -1 l0 0 l-1 3 l-1 3 l-1 1 l0 2 l-1 3 l0 4 l1 -3 l2 -3 l1 -5 z M 288 419 l0 -4 l1 -1 l2 -1 l-2 0 l-1 0 l-1 2 l-2 2 l-1 3 l-2 4 l0 0 l0 1 l3 -1 l3 -1 l0 -4 z M 299 419 l0 0 l-1 1 l-2 1 l0 1 l0 1 l2 -2 l2 -1 l-1 -1 z M 302 415 l1 0 l-1 -2 l0 -1 l-2 2 l-2 1 l0 2 l0 2 l1 -2 l1 -2 l2 0 z M 279 413 l0 -1 l-1 0 l-1 0 l0 1 l0 1 l0 0 l1 0 l1 -1 z M 308 409 l-1 -1 l1 -1 l1 -2 l0 -1 l-1 -2 l-1 0 l-1 0 l0 2 l0 2 l-1 1 l-1 1 l1 1 l1 2 l2 -1 l1 0 l-1 -1 z M 292 395 l2 -1 l-2 1 l-2 1 l0 1 l0 0 l0 0 l1 0 l1 -2 z M 725 389 l-3 -4 l-5 -5 l-4 -5 l-3 -3 l-3 -4 l0 -1 l1 -1 l-1 0 l0 1 l-2 -1 l-2 -1 l0 -1 l0 -1 l2 1 l1 1 l0 -1 l0 -1 l-1 -1 l-1 -2 l-4 -3 l-3 -2 l1 2 l1 2 l0 1 l-1 1 l3 3 l2 4 l1 0 l1 1 l3 4 l2 4 l0 -2 l0 -1 l1 0 l1 1 l0 1 l0 1 l4 4 l4 4 l0 1 l0 0 l2 2 l2 2 l0 0 l0 1 l1 1 l2 2 l0 -1 l0 0 l-2 -4 z M 664 299 l0 -1 l-1 1 l-1 2 l0 0 l0 1 l1 -1 l2 0 l-1 -2 z M 375 285 l-3 -8 l-3 -5 l-3 -4 l-3 -4 l-3 -3 l-1 1 l-1 0 l0 -1 l0 -1 l0 0 l-1 0 l-1 -2 l-1 -2 l-1 0 l-1 0 l0 1 l0 1 l1 0 l1 -1 l0 1 l0 1 l2 3 l3 2 l2 3 l2 2 l0 1 l0 1 l0 0 l0 1 l1 1 l2 2 l3 6 l4 7 l-1 0 l-1 -1 l0 1 l0 1 l1 0 l1 1 l1 3 l1 4 l-1 -4 l0 -3 l2 4 l2 4 l0 -2 l0 -2 l-4 -9 z M 402 257 l0 -1 l-1 -2 l-1 -2 l0 0 l0 1 l-2 -3 l-3 -2 l-3 0 l-2 0 l0 -1 l1 -1 l-4 -2 l-5 -2 l-1 0 l-1 0 l0 2 l0 2 l1 0 l1 0 l5 4 l4 3 l1 0 l0 0 l3 3 l3 2 l2 0 l2 0 l0 -1 z M 474 249 l0 -1 l-1 2 l-2 3 l0 1 l0 1 l2 -3 l1 -2 l0 -1 z M 461 240 l-1 0 l0 0 l-1 1 l1 6 l0 6 l1 -6 l0 -6 l0 -1 z M 476 243 l2 -3 l0 -1 l-1 0 l0 1 l-1 2 l-1 2 l-1 3 l1 0 l0 0 l1 -4 z M 357 244 l-1 -1 l-1 0 l-1 0 l1 1 l0 1 l1 0 l1 0 l0 -1 z M 347 240 l-1 -3 l-2 0 l-1 -1 l0 1 l0 1 l2 2 l2 2 l1 0 l0 0 l-1 -2 z M 460 233 l-1 -1 l0 2 l0 3 l1 -2 l0 -1 l0 -1 z M 460 230 l0 -1 l0 0 l-1 0 l0 1 l-1 1 l1 0 l1 0 l0 -1 z M 454 170 l3 -4 l0 -1 l-1 0 l-2 3 l-3 4 l0 1 l-1 2 l0 0 l1 0 l3 -5 z M 572 172 l0 -1 l-6 -3 l-6 -3 l-1 0 l0 1 l7 3 l7 4 l0 0 l0 0 l-1 -1 z M 346 160 l-1 -1 l-1 0 l-1 0 l1 1 l2 1 l0 0 l0 0 l0 -1 z M 687 142 l3 0 l1 1 l1 1 l1 0 l1 -1 l0 -2 l0 -2 l-3 0 l-3 0 l-4 3 l-4 2 l2 0 l2 -1 l3 -1 z M 473 128 l0 -3 l-1 0 l0 0 l-2 3 l-2 4 l2 -1 l3 -1 l0 -2 z"/>
<path d="M 700 362 l-1 -2 l2 1 l3 0 l0 1 l0 0 l-1 0 l-2 1 l-1 -1 z"/>
<path d="M 347 651 l-1 0 l0 -1 l0 -1 l1 1 l1 1 l0 0 l-1 1 l0 -1 z"/>
<path d="M 679 648 l0 -1 l1 0 l1 0 l0 1 l-1 1 l-1 0 l0 0 l0 -1 z"/>
<path d="M 706 637 l0 -1 l1 0 l0 0 l0 1 l0 1 l-1 0 l-1 0 l1 -1 z"/>
<path d="M 710 629 l1 -2 l2 0 l1 0 l0 0 l0 1 l-3 2 l-2 2 l1 -3 z"/>
<path d="M 575 627 l-2 0 l-2 -2 l-2 -1 l0 -1 l1 0 l4 2 l5 2 l0 0 l0 1 l-1 0 l0 0 l-3 -1 z"/>
<path d="M 488 625 l0 -2 l1 0 l1 0 l0 1 l0 1 l-1 1 l-1 0 l0 -1 z"/>
<path d="M 578 612 l-1 -2 l1 0 l1 0 l0 2 l1 1 l0 0 l-1 0 l-1 -1 z"/>
<path d="M 572 611 l0 -1 l3 -3 l2 -2 l0 -1 l-1 -1 l2 0 l1 -1 l1 0 l1 0 l0 1 l0 2 l-2 2 l-3 2 l0 1 l0 2 l-2 0 l-2 0 l0 -1 z"/>
<path d="M 517 603 l0 -2 l2 0 l2 0 l0 2 l0 2 l-2 0 l-2 0 l0 -2 z"/>
<path d="M 625 598 l-2 -3 l0 -1 l1 0 l1 2 l2 2 l0 1 l0 2 l-2 -3 z"/>
<path d="M 619 582 l-2 0 l0 -2 l-1 -1 l1 0 l1 1 l0 -1 l1 -1 l1 1 l1 1 l0 1 l0 2 l-2 -1 z"/>
<path d="M 610 569 l-1 -1 l0 -1 l1 0 l1 0 l0 1 l0 1 l-1 1 l0 -1 z"/>
<path d="M 602 566 l0 -1 l2 0 l1 0 l0 0 l0 1 l-1 0 l-2 1 l0 -1 z"/>
<path d="M 608 564 l0 -2 l1 0 l1 -1 l-2 -2 l-3 -2 l0 -3 l0 -2 l2 0 l1 1 l2 3 l2 4 l-1 2 l0 3 l-2 0 l-1 0 l0 -1 z"/>
<path d="M 617 551 l0 -1 l1 1 l0 1 l0 1 l-1 0 l0 -2 z"/>
<path d="M 602 536 l0 -1 l-1 1 l-1 0 l1 -1 l1 -1 l1 0 l2 0 l1 1 l0 2 l-2 -1 l-1 -1 l0 1 l1 1 l0 0 l-1 0 l-1 -1 z"/>
<path d="M 600 530 l-1 -1 l2 0 l1 1 l1 0 l0 0 l0 1 l-1 1 l-1 0 l-1 0 l0 -2 z"/>
<path d="M 591 525 l1 -1 l0 0 l1 0 l0 1 l0 0 l-1 1 l-1 0 l0 -1 z"/>
<path d="M 594 523 l-2 -1 l0 -2 l0 -1 l3 2 l3 2 l0 1 l0 1 l-1 0 l-1 0 l-2 -2 z"/>
<path d="M 479 493 l-1 -1 l1 0 l2 0 l0 1 l0 1 l0 0 l0 0 l-2 -1 z"/>
<path d="M 512 486 l0 -1 l1 0 l1 0 l0 1 l0 1 l-1 0 l-1 0 l0 -1 z"/>
<path d="M 476 483 l-1 -2 l1 -3 l2 -2 l2 -1 l1 0 l3 1 l3 1 l1 2 l0 2 l-1 2 l-2 2 l-4 0 l-3 1 l-2 -3 z"/>
<path d="M 498 482 l-1 -1 l-2 1 l-1 1 l0 -1 l0 -1 l2 0 l1 -1 l3 1 l2 1 l-1 1 l-1 1 l-1 0 l-1 0 l0 -2 z"/>
<path d="M 515 483 l1 0 l1 0 l2 1 l-3 0 l-2 0 l1 -1 z"/>
<path d="M 491 479 l-2 -1 l2 0 l3 0 l0 1 l-1 1 l0 0 l0 0 l-2 -1 z"/>
<path d="M 765 463 l0 -2 l1 1 l2 0 l-1 1 l0 1 l-1 0 l-1 0 l0 -1 z"/>
<path d="M 260 443 l0 -1 l1 0 l1 0 l0 1 l-1 1 l-1 0 l0 0 l0 -1 z"/>
<path d="M 484 408 l-1 0 l0 -1 l0 -1 l3 -1 l2 -2 l-1 3 l-2 3 l0 0 l-1 0 l0 -1 z"/>
<path d="M 483 403 l0 0 l1 -2 l2 -1 l0 0 l1 0 l-1 2 l-1 2 l-1 0 l-1 0 l0 -1 z"/>
<path d="M 506 392 l-1 -1 l1 0 l1 0 l1 1 l0 1 l0 0 l0 0 l-2 -1 z"/>
<path d="M 469 384 l1 0 l1 0 l0 1 l-2 0 l-1 0 l1 -1 z"/>
<path d="M 508 380 l0 -1 l2 -3 l3 -2 l1 0 l1 0 l0 1 l0 1 l-2 3 l-1 2 l-2 0 l-1 0 l-1 -1 z"/>
<path d="M 318 361 l0 -1 l1 0 l1 0 l0 1 l-1 1 l-1 0 l0 0 l0 -1 z"/>
<path d="M 326 354 l3 -2 l0 -1 l0 -1 l2 0 l1 -1 l-3 4 l-3 4 l-1 0 l-1 0 l2 -3 z"/>
<path d="M 337 347 l0 -1 l2 0 l2 -1 l-1 1 l0 1 l-2 0 l-1 0 l0 0 z"/>
<path d="M 315 345 l0 -1 l1 0 l1 0 l0 1 l0 1 l-1 0 l-1 0 l0 -1 z"/>
<path d="M 655 284 l0 -1 l1 -2 l1 -2 l-1 1 l-2 2 l-1 0 l0 -1 l2 -4 l2 -4 l4 -7 l3 -6 l6 -8 l5 -8 l1 -1 l1 0 l0 2 l1 2 l-1 2 l0 2 l-3 2 l-2 3 l-1 -1 l-1 0 l1 1 l0 2 l-2 1 l-2 2 l1 1 l1 0 l-2 0 l-1 -1 l-2 4 l-3 4 l0 1 l1 0 l1 -3 l2 -2 l-1 2 l0 3 l-3 4 l-2 5 l-2 2 l-1 2 l0 1 l-1 0 l0 0 z M 659 275 l1 -2 l1 -1 l2 -1 l-2 0 l-1 0 l-2 4 l-2 3 l1 0 l1 0 l1 -3 z M 670 258 l0 -1 l-1 0 l-1 0 l0 1 l0 1 l0 0 l1 0 l1 -1 z"/>
<path d="M 678 240 l2 -2 l1 0 l0 0 l4 -3 l3 -2 l-2 2 l-1 3 l-3 2 l-3 1 l-1 0 l-1 0 l1 -1 z"/>
<path d="M 649 224 l0 -1 l1 0 l1 0 l0 1 l0 1 l-1 0 l-1 0 l0 -1 z"/>
<path d="M 671 223 l0 -1 l1 1 l1 0 l0 1 l0 0 l-1 0 l-1 0 l0 -1 z"/>
<path d="M 675 218 l-1 -1 l1 -2 l2 -1 l0 1 l1 1 l-1 2 l-2 1 l0 -1 z"/>
<path d="M 458 171 l1 -2 l1 0 l0 0 l0 2 l0 2 l-2 0 l-1 0 l1 -2 z"/>
<path d="M 342 163 l-1 -1 l2 1 l2 1 l0 1 l0 0 l-1 0 l-1 0 l-1 -2 z"/>
<path d="M 632 151 l1 0 l1 0 l0 1 l-2 0 l-1 0 l1 -1 z"/>
<path d="M 437 150 l1 0 l1 0 l0 1 l-2 0 l-1 0 l1 -1 z"/>
<path d="M 439 148 l-1 -2 l2 -2 l1 -1 l2 2 l3 3 l0 1 l0 0 l-3 0 l-3 1 l-1 -2 z"/>
<path d="M 642 148 l2 -1 l1 0 l1 0 l-2 1 l-1 1 l-2 0 l-1 0 l2 -1 z"/>
<path d="M 327 143 l-1 -1 l2 0 l1 0 l0 1 l-1 1 l0 0 l-1 0 l0 -1 z"/>
</g>
</svg>
