<svg xmlns="http://www.w3.org/2000/svg" width="512" height="512" viewBox="-21.03 -129.5 917 917">
<title>Pratibha sumi thunderbird (cleaned master)</title>
<g transform="translate(0.000000,862.000000) scale(0.100000,-0.100000)" fill="#000000" stroke="none">
<path d="M 451 7094 c0 -11 3 -14 6 -6 c3 7 2 16 -1 19 c-3 4 -6 -2 -5 -13 z"/>
<path d="M 165 7081 c-3 -10 -8 -42 -10 -72 c-3 -30 -9 -55 -15 -57 c-14 -5 -13 -23 1 -19 c6 1 14 -4 17 -12 c3 -10 0 -12 -12 -8 c-14 6 -15 4 -5 -15 c7 -12 13 -60 14 -108 c3 -102 15 -191 25 -185 c4 3 11 -2 14 -11 c9 -24 7 -31 -4 -14 c-13 19 -2 -41 16 -90 c9 -24 13 -29 14 -15 c0 11 12 -9 26 -45 c34 -89 39 -112 14 -70 c-31 52 -15 -1 21 -70 c16 -30 29 -60 29 -66 c0 -6 6 -17 14 -23 c9 -7 13 -26 12 -47 c-2 -18 1 -34 5 -34 c5 0 9 -8 9 -19 c0 -10 18 -37 40 -60 c22 -22 40 -48 40 -57 c0 -8 4 -12 10 -9 c9 5 15 -10 8 -18 c-2 -1 13 -18 32 -37 c19 -19 34 -37 33 -41 c-1 -4 6 -14 17 -24 c11 -10 16 -24 13 -33 c-4 -10 -2 -13 5 -8 c8 5 12 0 12 -13 c0 -12 4 -21 10 -21 c5 0 9 -6 7 -12 c-1 -7 4 -12 12 -10 c8 2 11 -3 8 -12 c-3 -8 3 -22 13 -31 c11 -10 17 -21 14 -26 c-2 -4 9 -15 26 -24 c17 -9 28 -20 25 -25 c-4 -6 1 -13 9 -16 c9 -3 16 -13 16 -20 c0 -8 11 -19 25 -24 c14 -5 47 -29 73 -53 c26 -25 54 -47 62 -50 c13 -5 13 -6 -1 -6 c-9 -1 -24 8 -34 19 c-10 11 -25 20 -34 20 c-11 -1 -7 -7 12 -21 c40 -31 51 -56 33 -75 c-9 -8 -20 -12 -26 -9 c-15 9 -12 -4 4 -20 c12 -12 15 -11 21 8 l8 22 l4 -24 c3 -13 11 -31 19 -38 c8 -8 14 -20 14 -28 c0 -7 7 -16 16 -19 c10 -4 13 -2 9 7 c-4 6 5 -1 19 -18 c14 -16 26 -26 26 -20 c0 5 7 -1 16 -13 c8 -12 20 -22 26 -22 c7 0 3 7 -8 15 c-10 8 -14 15 -7 15 c6 0 18 -8 25 -19 c7 -10 22 -18 33 -18 c68 1 77 -2 73 -28 c-6 -27 6 -43 17 -24 c5 7 12 3 21 -10 c9 -13 21 -18 31 -14 c11 4 14 3 9 -6 c-5 -8 -1 -14 13 -18 c22 -5 29 -23 10 -23 c-5 0 -7 -4 -4 -10 c3 -5 1 -10 -4 -10 c-6 0 -11 -4 -11 -10 c0 -5 7 -7 16 -3 c12 4 14 0 9 -20 c-5 -18 -2 -28 12 -36 c11 -7 13 -11 4 -11 c-7 0 -11 -6 -7 -15 c3 -8 1 -15 -4 -15 c-18 0 -10 -19 10 -25 c11 -3 20 -12 20 -18 c0 -19 40 -49 57 -43 c20 8 43 -17 38 -43 c-2 -13 3 -25 16 -31 c11 -6 17 -15 14 -21 c-4 -5 9 -7 30 -4 c31 4 35 2 31 -13 c-5 -14 1 -17 29 -18 c19 -1 35 3 35 7 c0 5 -9 9 -20 9 c-11 0 -20 7 -20 15 c0 10 7 14 23 11 c12 -3 22 -5 22 -6 c0 -1 18 -4 40 -6 c46 -6 60 -14 23 -14 c-27 0 -34 -40 -8 -48 c9 -3 11 1 7 12 c-8 20 7 21 27 0 c9 -8 20 -12 26 -9 c5 3 10 2 10 -4 c0 -6 8 -7 18 -4 c14 6 15 4 4 -9 c-10 -12 -10 -18 2 -27 c11 -9 14 -8 12 6 c0 10 7 19 19 21 c16 2 17 1 5 -7 c-21 -14 -7 -23 34 -23 c20 0 39 -4 42 -9 c3 -5 10 -7 15 -4 c5 3 6 -1 3 -9 c-3 -9 -12 -16 -20 -16 c-8 0 -14 -4 -14 -10 c0 -11 11 -13 34 -4 c9 3 13 10 10 15 c-3 5 0 9 5 9 c16 0 13 -16 -4 -30 c-22 -18 -18 -30 9 -30 c13 0 27 -6 29 -12 c3 -8 6 -6 6 5 c1 15 3 15 21 -3 c25 -25 48 -27 29 -3 c-9 12 -3 10 18 -5 c33 -23 46 -39 49 -57 c0 -5 2 -16 2 -23 c1 -6 8 -11 14 -10 c7 2 12 -1 11 -7 c0 -5 6 -17 15 -25 c14 -13 15 -12 9 5 c-8 20 6 35 36 35 c20 0 23 -25 4 -34 c-6 -3 -3 -4 8 -1 c48 11 105 13 110 5 c3 -6 -1 -7 -9 -4 c-22 8 -20 -2 3 -25 c13 -13 21 -16 24 -8 c8 23 62 -16 60 -44 c-1 -13 1 -18 4 -11 c3 7 16 17 30 23 c13 5 21 13 18 19 c-3 5 -1 10 5 10 c6 0 13 -7 16 -15 c4 -8 14 -15 25 -15 c10 0 22 -6 26 -13 c4 -8 17 -17 28 -21 c11 -4 16 -4 12 0 c-8 8 11 34 24 34 c5 0 6 -6 3 -14 c-4 -11 2 -14 25 -14 c17 1 31 4 31 9 c0 4 18 5 40 3 c30 -3 40 0 40 11 c0 18 16 20 23 3 c4 -10 8 -9 16 2 c9 13 11 13 11 -2 c0 -9 5 -18 10 -20 c6 -2 12 -12 12 -24 c2 -16 10 -20 42 -23 c85 -5 146 -25 146 -48 c0 -7 5 -13 10 -13 c6 0 10 5 10 10 c0 6 11 8 28 4 c34 -8 53 -24 28 -24 c-10 0 -14 -4 -10 -12 c4 -7 3 -8 -5 -4 c-13 9 -75 19 -108 18 c-13 0 -23 4 -23 9 c0 11 -125 2 -150 -11 c-10 -5 -46 -10 -79 -10 c-55 0 -186 -14 -238 -25 c-12 -3 -29 -13 -39 -22 c-16 -16 -78 -37 -189 -64 c-35 -8 -68 -21 -127 -50 c-10 -5 -24 -9 -32 -9 c-8 0 -48 -23 -89 -50 c-41 -28 -80 -50 -86 -50 c-6 0 -19 -8 -29 -17 c-9 -10 -56 -48 -104 -85 c-213 -164 -280 -247 -244 -302 c12 -19 23 -25 44 -22 c45 6 57 15 81 59 c28 51 131 115 266 165 c50 18 99 37 110 42 c11 5 54 11 95 14 c41 3 89 8 105 11 c17 3 47 7 68 10 c21 2 53 8 70 13 c41 11 143 8 159 -6 c7 -5 55 -13 107 -16 c90 -6 138 -23 162 -59 c9 -13 84 1 158 30 c35 13 73 26 84 29 c11 2 31 13 43 25 l23 22 l19 -23 l19 -24 l-59 -86 l-60 -87 l13 -42 c15 -50 38 -65 88 -57 c20 4 51 8 70 11 c18 2 41 11 50 18 c30 26 45 32 38 14 c-7 -20 17 -41 39 -33 c9 3 18 15 21 25 c3 11 11 22 19 25 c8 3 14 16 14 28 c0 14 14 35 34 53 c18 16 32 34 30 40 c-2 5 7 23 21 39 c14 16 25 33 25 39 c0 5 7 7 15 3 c8 -3 15 -1 15 4 c0 6 3 9 8 9 c30 -5 44 2 39 20 c-3 14 -1 18 9 14 c8 -3 14 1 14 11 c0 9 -5 16 -11 16 c-7 0 -5 10 5 25 c18 27 14 45 -10 45 c-12 0 -12 4 -4 20 c7 12 16 17 27 13 c12 -5 15 -2 11 8 c-10 25 9 58 31 54 c16 -3 25 5 37 31 c12 25 19 32 25 22 c4 -7 11 -9 15 -5 c4 4 13 2 21 -4 c10 -9 13 -4 13 26 c0 30 -3 36 -16 31 c-14 -5 -15 -4 -4 9 c27 33 43 18 36 -32 c-6 -48 -6 -48 11 -23 c10 14 18 32 18 40 c0 8 6 14 13 13 c16 -4 16 7 -1 21 c-7 6 -10 10 -8 9 c2 -2 11 3 19 10 c13 10 14 9 8 -1 c-4 -7 -2 -19 4 -27 c7 -8 9 -15 6 -15 c-4 0 -1 -6 6 -14 c13 -14 45 -15 66 -2 c13 8 17 -6 5 -17 c-16 -16 -9 -54 9 -49 c13 3 18 -1 18 -14 c0 -16 2 -17 10 -4 c8 12 10 11 10 -7 c0 -13 6 -23 14 -23 c10 0 12 -7 8 -22 c-4 -17 -2 -20 11 -15 c12 5 17 1 17 -13 c0 -11 -5 -20 -12 -20 c-6 0 -8 -3 -5 -6 c4 -4 13 -1 22 6 c11 9 15 9 15 1 c0 -7 5 -9 10 -6 c6 3 10 -3 10 -14 c0 -16 6 -21 24 -21 c26 0 43 -30 30 -52 c-5 -8 -2 -9 9 -5 c10 3 17 2 17 -4 c0 -6 9 -8 21 -4 c18 6 20 4 14 -15 c-6 -19 -4 -21 14 -15 c17 5 21 2 21 -16 c0 -18 2 -19 15 -9 c12 10 15 10 15 0 c0 -9 4 -9 17 1 c11 10 14 10 9 2 c-4 -7 -3 -13 2 -13 c6 0 8 -10 5 -22 c-5 -22 -4 -22 16 2 l21 25 l0 -22 c0 -25 15 -31 23 -10 c4 7 9 3 13 -11 c5 -18 9 -20 15 -10 c7 10 9 10 9 -2 c1 -11 4 -10 15 4 c14 19 15 19 15 1 c0 -17 1 -17 18 -2 c16 15 19 15 31 -5 c11 -18 11 -20 -3 -15 c-9 4 -16 2 -16 -3 c0 -6 6 -10 14 -10 c8 0 18 -9 21 -20 c7 -23 25 -27 25 -5 c0 18 17 20 22 3 c3 -8 12 -9 36 0 c22 7 34 8 38 0 c4 -5 9 -6 13 -1 c13 19 57 31 76 21 c12 -7 16 -7 11 0 c-4 6 4 16 16 23 c21 11 22 11 9 -4 c-18 -22 -3 -22 22 0 c13 11 17 12 12 4 c-6 -11 -4 -13 8 -8 c10 3 17 2 17 -3 c0 -5 7 -7 15 -4 c8 4 15 11 15 17 c0 6 7 18 16 28 c16 17 15 19 -15 77 c-14 28 -8 28 19 0 c14 -16 23 -19 31 -11 c8 8 8 13 0 17 c-6 4 -11 12 -11 18 c0 7 4 7 13 0 c8 -7 18 -7 27 -1 c13 8 13 10 0 19 c-11 8 -7 9 18 5 c29 -5 32 -3 32 19 c0 13 7 27 16 30 c9 3 14 13 10 21 c-3 10 5 16 29 21 c19 3 36 11 37 18 c1 6 2 22 3 36 c2 14 3 31 4 39 c1 8 7 11 19 6 c14 -5 15 -4 5 6 c-21 21 -15 29 12 19 c20 -7 25 -6 25 5 c0 13 -25 20 -52 16 c-5 0 -8 4 -8 10 c0 7 14 10 35 7 c33 -4 34 -3 18 14 c-18 20 -15 22 21 9 c21 -8 27 -6 40 15 c18 27 36 32 36 9 c0 -8 5 -15 11 -15 c5 0 8 4 5 9 c-3 4 40 8 97 7 c116 -2 252 16 294 37 c15 8 53 18 83 21 c104 11 205 18 270 20 c79 3 106 16 124 61 c9 21 21 34 33 34 c26 -1 67 6 78 13 c6 3 51 16 100 27 c50 12 97 25 105 28 c8 3 20 7 27 9 c6 1 35 7 63 13 c28 6 56 8 61 5 c6 -3 18 1 27 8 c9 8 37 16 61 17 c24 1 70 8 102 15 c32 8 60 12 63 9 c2 -3 20 0 38 6 c18 5 60 13 92 16 c33 3 62 8 65 10 c5 3 84 9 256 19 c22 2 48 -1 58 -6 c11 -5 17 -5 17 2 c0 13 177 6 405 -15 c17 -1 38 -3 48 -4 c11 -1 15 -6 11 -13 c-5 -7 -3 -8 6 -3 c7 4 16 2 21 -6 c6 -10 9 -11 9 -1 c0 6 5 12 10 12 c6 0 10 -7 10 -15 c0 -10 11 -15 33 -16 c37 -1 92 -16 65 -18 c-20 -1 -24 -16 -7 -26 c5 -4 18 -1 27 7 c24 21 68 17 64 -5 c-2 -9 2 -17 8 -17 c5 0 10 5 10 10 c0 15 24 7 32 -10 c6 -13 7 -12 7 1 c1 9 8 20 17 23 c8 3 12 2 9 -4 c-10 -16 18 -37 40 -32 c18 5 19 4 5 -14 c-15 -18 -14 -18 13 -1 c15 10 27 13 27 8 c0 -6 6 -8 14 -5 c8 3 25 0 38 -7 c13 -7 25 -14 28 -14 c3 -1 18 -7 34 -14 c21 -8 32 -9 42 0 c19 16 47 -8 42 -36 c-3 -13 4 -27 19 -38 c13 -10 23 -13 23 -7 c0 5 -5 10 -11 10 c-6 0 -9 7 -5 15 c3 8 2 15 -3 15 c-5 0 -11 14 -15 30 c-3 17 -11 32 -18 34 c-7 2 -22 7 -33 12 c-11 4 -24 6 -28 5 c-5 -1 -6 3 -3 8 c3 5 0 13 -7 18 c-16 13 -169 73 -184 73 c-7 0 -13 4 -13 9 c0 9 114 -19 172 -43 c21 -9 41 -16 45 -16 c13 0 -61 47 -89 56 c-21 7 -25 13 -18 24 c8 12 17 12 75 -2 c36 -8 68 -12 70 -8 c7 11 45 0 45 -12 c0 -6 6 -8 14 -5 c8 3 22 -1 33 -8 c11 -9 30 -12 51 -9 c19 4 38 1 47 -6 c9 -7 27 -10 45 -6 c17 3 30 1 30 -4 c0 -6 9 -10 20 -10 c14 0 18 5 13 18 c-6 16 -6 16 10 0 c9 -9 17 -22 17 -28 c0 -6 10 -10 23 -9 c12 1 35 -4 50 -11 c24 -12 30 -12 37 0 c6 10 9 9 13 -6 c3 -10 5 2 4 29 c0 46 -1 48 -46 69 c-25 12 -52 22 -58 21 c-7 0 -10 3 -7 8 c8 13 -10 11 -25 -4 c-8 -7 -11 -7 -8 -1 c4 7 -6 15 -26 19 c-38 9 -33 9 -74 0 c-21 -4 -33 -3 -33 4 c0 6 7 8 15 5 c8 -4 15 -2 15 4 c0 5 -9 12 -20 15 c-13 3 -20 0 -20 -9 c0 -8 -5 -14 -11 -14 c-6 0 -8 7 -5 16 c5 14 4 15 -9 4 c-9 -7 -27 -10 -46 -6 c-18 3 -28 2 -24 -4 c3 -6 -1 -10 -9 -10 c-9 0 -16 -7 -16 -16 c0 -8 -5 -12 -11 -9 c-7 5 -5 13 6 25 c13 15 14 23 5 39 c-13 25 -23 26 -39 7 c-11 -13 -15 -12 -30 2 c-10 9 -17 19 -15 22 c1 3 -19 5 -44 4 c-52 -1 -107 17 -95 31 c5 5 1 4 -9 -3 c-10 -8 -19 -9 -22 -3 c-3 5 0 12 6 14 c8 3 6 6 -4 6 c-10 1 -18 -3 -18 -9 c0 -11 -60 -2 -74 11 c-5 4 -15 5 -22 2 c-10 -4 -12 0 -8 11 c3 9 1 16 -5 16 c-6 0 -11 -8 -11 -17 c-1 -15 -4 -14 -20 6 c-18 21 -25 20 -21 -2 c1 -8 -18 -6 -106 9 c-54 10 -72 12 -123 15 c-25 1 -49 5 -55 8 c-5 3 -48 6 -95 7 c-47 2 -87 3 -90 4 c-3 2 -8 2 -12 1 c-19 -3 -59 20 -52 30 c4 7 1 10 -7 7 c-8 -3 -13 -11 -11 -17 c1 -7 -2 -10 -8 -6 c-6 3 -8 10 -5 15 c9 14 -69 18 -83 3 c-19 -19 -24 -16 -10 6 c14 23 51 35 79 26 c10 -4 19 -3 19 2 c0 4 39 7 87 5 c63 -3 85 0 77 7 c-6 7 -75 14 -165 17 c-99 4 -157 10 -161 18 c-6 8 -8 8 -8 0 c0 -6 -11 -11 -25 -11 c-14 0 -25 5 -25 11 c0 6 -5 4 -10 -4 c-7 -11 -10 -11 -10 -2 c0 9 -12 12 -42 8 c-24 -2 -54 -5 -67 -5 c-16 -1 -21 -6 -18 -15 c4 -11 -3 -14 -36 -12 c-22 2 -57 -1 -76 -5 c-22 -5 -40 -4 -48 3 c-8 6 -13 6 -13 1 c0 -5 -6 -10 -12 -10 c-22 0 -131 -13 -195 -22 c-34 -5 -72 -7 -84 -4 c-12 4 -25 0 -30 -8 c-8 -12 -11 -12 -19 1 c-8 13 -11 13 -19 1 c-5 -7 -14 -10 -20 -7 c-6 4 -26 3 -44 -3 c-17 -6 -52 -12 -77 -15 c-25 -2 -45 -5 -45 -6 c0 -4 -122 -20 -177 -23 c-10 -1 -18 -4 -18 -8 c0 -13 -150 -6 -161 8 c-6 7 -20 13 -31 13 c-10 0 -16 4 -13 10 c3 5 1 10 -4 10 c-6 0 -11 -7 -11 -16 c0 -8 -4 -12 -10 -9 c-5 3 -29 0 -52 -7 c-49 -14 -158 -18 -158 -6 c0 4 6 8 14 8 c7 0 28 3 46 7 c24 4 31 3 26 -5 c-11 -18 30 -15 48 4 c9 8 16 19 16 24 c0 10 71 32 79 25 c2 -3 11 4 19 16 c7 11 19 18 25 16 c6 -2 18 4 27 12 c31 29 95 76 101 74 c3 -1 11 8 19 20 c12 21 12 21 -6 7 c-17 -12 -17 -12 -6 0 c7 8 17 16 23 16 c5 1 14 2 20 3 c6 0 8 10 4 21 c-4 12 -2 20 5 20 c6 0 8 -4 5 -10 c-3 -6 -1 -10 4 -10 c6 0 11 5 11 10 c0 6 16 10 36 10 c30 0 34 2 25 14 c-21 25 93 81 249 121 c116 29 134 33 188 40 c28 4 52 12 52 17 c0 7 -12 8 -32 4 c-18 -4 -44 -9 -58 -11 c-75 -11 -247 -48 -265 -56 c-20 -10 -20 -10 0 6 c11 9 19 21 18 26 c-2 5 2 9 7 9 c6 0 10 -4 10 -9 c0 -5 9 -7 20 -4 c11 3 18 8 15 12 c-2 4 10 6 28 4 c27 -3 29 -2 12 7 c-17 9 -15 10 12 7 c19 -2 29 1 26 6 c-4 6 3 8 15 5 c12 -3 22 -2 24 3 c2 5 19 11 38 14 l35 5 l-30 -14 c-29 -15 -29 -15 -5 -15 c14 0 36 7 50 15 c14 8 17 13 7 10 c-11 -3 -15 -2 -12 4 c9 14 35 12 35 -2 c0 -6 6 -4 13 6 c9 12 30 19 63 22 c36 3 44 2 29 -5 c-11 -5 -35 -10 -52 -10 c-18 -1 -33 -6 -33 -12 c0 -7 10 -9 25 -5 c19 5 23 3 19 -9 c-6 -13 2 -15 57 -9 c35 4 80 7 99 6 c19 -1 50 -2 68 -2 c19 0 46 -8 60 -18 c35 -23 64 -18 103 19 c34 31 44 36 34 17 c-4 -7 -1 -6 7 3 c7 8 27 16 43 17 c103 4 154 27 178 78 c14 27 14 35 1 59 c-18 36 -18 36 11 31 c14 -3 25 0 25 5 c0 5 -15 9 -33 9 c-18 0 -42 8 -53 18 c-10 10 -28 24 -39 30 c-18 10 -18 11 -2 12 c10 0 15 5 12 10 c-4 6 -10 8 -14 5 c-5 -2 -39 -7 -77 -10 c-105 -9 -108 -9 -117 -22 c-4 -7 -20 -10 -42 -6 c-26 4 -36 2 -41 -11 c-3 -9 -11 -16 -16 -16 c-7 0 -7 4 0 13 c7 8 7 18 2 27 c-8 12 -10 12 -10 -4 c0 -13 -5 -17 -20 -13 c-11 3 -23 1 -26 -5 c-3 -5 -15 -8 -25 -5 c-10 3 -21 1 -24 -3 c-3 -4 -15 -6 -28 -4 c-20 4 -20 4 -2 -4 c11 -5 35 -5 53 -1 c23 5 32 4 29 -4 c-2 -6 -28 -12 -60 -12 c-31 -1 -54 2 -51 7 c3 4 -6 4 -19 -1 c-13 -5 -30 -5 -37 -1 c-8 5 -18 6 -22 4 c-4 -3 -8 0 -8 5 c0 18 -224 0 -312 -25 c-10 -3 -18 -1 -18 4 c0 9 20 15 94 27 c53 9 40 15 -27 13 c-36 -1 -64 -5 -62 -8 c2 -3 -19 -3 -46 -2 c-32 3 -49 0 -49 -8 c0 -6 -4 -8 -10 -5 c-13 8 -134 -23 -138 -35 c-2 -6 -21 -10 -43 -10 c-50 0 -113 -33 -166 -87 c-22 -24 -44 -43 -48 -43 c-3 0 -11 -5 -18 -10 c-28 -24 -170 -88 -183 -83 c-8 3 -14 -1 -14 -11 c0 -9 -8 -16 -17 -16 c-10 0 -29 -9 -43 -20 c-14 -11 -33 -20 -42 -20 c-10 0 -18 -4 -18 -9 c0 -9 -38 -24 -56 -22 c-7 1 -15 -6 -18 -15 c-4 -9 -13 -14 -21 -10 c-8 3 -15 1 -15 -4 c0 -6 -8 -10 -18 -10 c-10 0 -22 -3 -26 -7 c-4 -5 -11 -8 -14 -9 c-27 -2 -72 -17 -72 -24 c0 -4 -9 -6 -20 -3 c-11 3 -20 1 -20 -3 c0 -5 -33 -10 -73 -10 c-54 -1 -66 1 -47 7 c14 6 30 15 35 22 c6 7 28 22 50 33 c22 11 41 26 43 32 c2 10 -3 10 -18 2 c-11 -6 -25 -8 -30 -5 c-6 3 -10 1 -10 -5 c0 -7 -6 -10 -14 -7 c-8 3 -17 3 -20 -1 c-11 -10 -36 -11 -36 -1 c0 5 3 9 8 9 c9 0 62 45 62 54 c0 4 -13 0 -30 -9 c-35 -18 -48 -19 -32 -3 c15 15 16 42 2 33 c-6 -4 -8 -11 -5 -16 c4 -5 1 -9 -4 -9 c-20 0 -11 29 13 45 c13 9 27 24 30 33 c5 13 3 13 -9 -2 c-8 -11 -15 -17 -15 -13 c0 4 -10 3 -22 -4 c-24 -11 -10 3 72 73 l35 31 l-59 -32 c-73 -38 -76 -36 -29 18 c27 33 33 45 23 51 c-17 10 -40 2 -40 -15 c0 -15 -37 -27 -45 -15 c-8 12 6 41 16 34 c5 -3 7 9 5 25 c-2 17 0 28 5 25 c4 -2 13 5 20 17 l12 22 l-39 -22 c-38 -23 -35 -7 6 26 c25 20 0 15 -30 -7 c-15 -11 -31 -16 -35 -12 c-5 4 -5 1 -1 -5 c5 -9 1 -13 -11 -13 c-10 0 -29 -9 -42 -19 c-13 -10 -32 -16 -42 -14 c-25 7 -24 23 0 23 c11 0 30 15 42 33 l22 32 l-33 -30 l-33 -30 l21 36 c32 53 22 69 -18 29 c-12 -12 -26 -17 -36 -13 c-14 5 -9 13 27 44 c24 21 39 39 34 39 c-6 0 -17 -6 -24 -12 c-11 -11 -11 -9 -2 10 c6 12 17 22 23 22 c7 0 22 10 35 22 c21 20 23 20 17 4 c-5 -13 -4 -17 4 -12 c6 3 10 15 9 25 c-2 25 -17 17 -84 -43 c-52 -47 -76 -60 -52 -28 c8 10 4 8 -11 -5 c-33 -29 -84 -28 -64 2 c18 26 18 41 -1 25 c-20 -17 -19 -7 6 43 l21 42 l-47 -50 c-26 -27 -46 -45 -43 -40 c13 33 34 71 43 77 c5 4 6 11 1 15 c-4 4 -17 -3 -27 -17 c-43 -54 -51 -62 -57 -55 c-4 4 1 12 11 19 c18 14 24 46 8 46 c-6 0 -16 -8 -23 -18 c-22 -31 -42 -39 -27 -11 c11 22 11 23 -5 10 c-9 -8 -26 -14 -39 -15 c-13 -1 -23 -9 -25 -21 c-5 -23 -21 -45 -33 -45 c-5 0 -3 10 5 23 c7 12 17 40 21 61 c6 36 5 38 -10 22 c-21 -20 -32 -21 -15 -1 c7 8 8 15 2 15 c-17 0 -39 -33 -24 -37 c17 -6 15 -20 -3 -27 c-9 -3 -15 -1 -14 7 c6 44 -1 53 -22 27 c-12 -14 -20 -18 -19 -10 c4 26 0 40 -11 40 c-5 0 -8 -3 -6 -7 c3 -5 -2 -14 -10 -22 c-13 -12 -14 -11 -8 10 c7 23 6 22 -15 -4 c-18 -22 -25 -26 -32 -15 c-5 8 -6 2 -2 -17 c7 -30 7 -30 -14 -11 l-21 19 l21 31 l22 31 l-29 -25 c-28 -25 -28 -25 -22 -2 c3 12 1 22 -4 22 c-5 0 -9 -7 -9 -16 c0 -8 -4 -12 -10 -9 c-6 3 -10 -3 -10 -14 c0 -12 -4 -21 -10 -21 c-5 0 -16 -12 -24 -27 l-15 -28 l-1 35 l-1 35 l-15 -28 c-9 -16 -13 -35 -10 -43 c4 -9 2 -12 -5 -8 c-7 4 -9 -2 -7 -14 c2 -12 -1 -20 -7 -19 c-5 1 -9 19 -9 40 c1 20 -2 37 -7 37 c-5 0 -9 -11 -9 -23 c0 -33 -10 -40 -32 -20 c-17 15 -18 14 -18 -25 c0 -23 -4 -42 -9 -42 c-5 0 -7 10 -3 22 c4 17 2 20 -12 15 c-10 -4 -19 -7 -21 -7 c-2 0 -7 -16 -11 -35 c-8 -47 -23 -54 -30 -15 c-12 57 -24 41 -28 -37 c-1 -28 -22 -30 -31 -3 c-6 18 -8 18 -35 -10 c-25 -25 -28 -34 -24 -76 c5 -46 4 -47 -14 -31 c-25 22 -32 21 -32 -4 c0 -16 -3 -19 -12 -11 c-9 7 -17 6 -25 -3 c-10 -11 -10 -16 -1 -21 c7 -5 4 -10 -10 -15 c-24 -9 -29 -38 -9 -58 c10 -10 7 -10 -15 -2 c-19 7 -28 7 -28 0 c0 -6 -5 -7 -11 -3 c-14 8 -2 -36 14 -51 c7 -7 8 -4 4 8 c-4 11 -3 16 4 12 c6 -4 8 -13 5 -20 c-2 -7 0 -17 5 -22 c5 -5 -1 -9 -15 -8 c-13 0 -28 3 -32 8 c-14 14 -26 7 -13 -9 c11 -14 10 -16 -6 -14 c-39 4 -47 0 -42 -20 c3 -11 1 -20 -4 -20 c-10 0 0 -30 17 -47 c7 -7 17 -13 23 -13 c5 0 12 -4 15 -8 c3 -5 -23 -8 -57 -7 c-34 1 -66 -1 -72 -5 c-25 -17 -47 -20 -41 -5 c7 19 -16 15 -27 -5 c-4 -9 -6 -5 -4 13 c4 22 2 25 -10 16 c-11 -9 -19 -7 -37 10 c-12 11 -26 18 -29 14 c-4 -3 -7 -1 -7 6 c0 8 -5 7 -16 -3 c-20 -20 -34 -20 -34 0 c0 8 -5 12 -10 9 c-6 -4 -8 -11 -5 -16 c7 -10 -31 -7 -41 4 c-4 4 -13 2 -21 -4 c-10 -9 -13 -8 -13 1 c0 10 -3 10 -15 0 c-9 -7 -19 -10 -22 -6 c-4 4 -2 11 5 15 c9 5 5 11 -13 19 c-14 6 -25 16 -25 22 c0 5 -8 10 -17 10 c-17 -1 -17 -1 -1 -14 c15 -11 16 -16 4 -31 c-14 -19 -86 -32 -86 -16 c0 6 7 8 15 5 c8 -4 15 -1 15 5 c0 6 3 10 8 8 c4 -1 8 1 10 6 c5 17 1 19 -15 6 c-13 -11 -17 -11 -20 -1 c-8 22 -23 12 -23 -15 c-1 -25 -2 -26 -14 -10 c-14 18 -32 24 -21 7 c3 -5 1 -10 -4 -10 c-6 0 -11 14 -11 30 c0 33 -6 36 -32 16 c-24 -18 -23 -29 2 -21 c11 4 20 2 20 -4 c0 -6 -7 -11 -16 -11 c-8 0 -12 -4 -9 -10 c3 -5 1 -10 -4 -10 c-6 0 -11 8 -11 17 c0 13 -3 14 -12 5 c-7 -7 -19 -12 -28 -12 c-10 1 -7 5 8 13 c12 7 19 16 16 20 c-4 4 -2 7 4 7 c7 0 12 7 12 16 c0 11 -5 14 -16 10 c-9 -3 -18 -6 -20 -6 c-2 0 -4 -7 -4 -15 c0 -8 -4 -15 -10 -15 c-5 0 -10 5 -10 11 c0 6 -10 9 -23 7 c-16 -3 -23 0 -23 11 c-1 9 -5 25 -9 36 c-7 16 -5 16 12 -4 c17 -21 21 -22 26 -8 c4 11 -2 22 -16 32 c-31 22 -49 19 -47 -7 c4 -45 1 -48 -40 -46 c-24 1 -36 4 -28 9 c7 4 10 11 6 14 c-3 3 -13 -1 -22 -10 c-21 -22 -54 -12 -36 10 c10 12 10 15 -3 15 c-8 0 -18 -6 -20 -12 c-4 -10 -6 -10 -6 0 c-1 6 -6 12 -12 12 c-5 0 -7 -4 -4 -10 c3 -5 -1 -10 -9 -10 c-19 0 -21 26 -3 33 c7 4 6 6 -4 6 c-9 1 -22 -6 -29 -14 c-12 -14 -15 -14 -34 3 c-21 20 -65 35 -101 36 c-11 1 -19 7 -17 15 c6 29 -8 51 -27 41 c-12 -6 -22 -5 -29 2 c-7 7 -12 9 -12 5 c0 -4 -9 -3 -19 3 c-14 7 -21 6 -24 -3 c-3 -6 -6 -1 -6 12 c-1 20 -5 22 -26 17 c-14 -4 -25 -2 -25 4 c0 5 -7 10 -16 10 c-10 0 -14 6 -11 14 c4 10 1 13 -7 10 c-8 -3 -17 0 -21 6 c-6 9 -10 9 -16 -1 c-6 -10 -9 -8 -9 9 c0 12 5 22 10 22 c6 0 10 5 10 11 c0 7 -10 9 -25 7 c-14 -3 -25 -1 -25 4 c0 4 -11 6 -25 2 c-15 -4 -25 -2 -25 4 c0 6 8 12 18 15 c13 3 10 6 -10 11 c-16 5 -28 14 -28 21 c0 7 -4 15 -10 17 c-5 2 -11 21 -13 43 c-5 51 -17 53 -58 13 c-39 -39 -73 -43 -90 -11 c-7 13 -18 23 -26 23 c-7 0 -13 11 -13 26 c0 19 -4 25 -15 20 c-9 -3 -18 1 -21 9 c-4 8 -17 15 -30 15 c-14 0 -39 15 -61 38 c-21 21 -51 47 -66 57 c-15 10 -26 24 -23 31 c3 8 0 11 -8 8 c-7 -2 -23 4 -36 16 c-34 30 -44 24 -20 -11 c12 -16 24 -28 27 -25 c6 6 63 -52 63 -64 c0 -14 -28 -1 -34 16 c-3 9 -10 12 -16 9 c-6 -3 -7 1 -4 9 c4 11 0 16 -10 16 c-10 0 -28 12 -42 28 c-17 18 -27 23 -31 15 c-2 -7 -12 -13 -21 -12 c-11 0 -12 2 -4 6 c6 2 12 12 12 20 c0 9 -6 13 -14 10 c-8 -3 -17 -3 -21 1 c-3 4 -14 7 -23 7 c-9 0 -16 6 -14 13 c1 8 -2 11 -8 7 c-7 -4 -14 2 -17 15 c-3 13 -11 19 -19 16 c-17 -7 -18 1 -1 19 c10 11 16 10 35 -8 l22 -20 l0 22 c0 12 -4 20 -9 17 c-5 -3 -33 18 -62 47 c-30 28 -72 68 -93 87 l-40 35 l35 -45 c19 -24 34 -49 34 -55 c0 -5 8 -9 18 -7 c9 2 17 -2 17 -8 c0 -6 -4 -8 -10 -5 c-5 3 -10 1 -10 -5 c0 -7 8 -9 19 -5 c19 6 49 -20 37 -32 c-3 -3 -6 -1 -6 5 c0 7 -7 12 -16 12 c-14 0 -14 -3 -4 -15 c7 -8 10 -15 7 -15 c-13 0 -102 104 -99 116 c1 7 -3 16 -9 20 c-8 4 -9 3 -5 -4 c4 -7 3 -12 -3 -12 c-5 0 -8 14 -6 32 c4 31 -8 58 -27 58 c-5 0 -6 -5 -2 -12 c4 -7 3 -8 -4 -4 c-6 4 -9 13 -6 20 c3 8 -6 23 -20 34 c-14 11 -26 26 -26 33 c0 10 -3 10 -12 1 c-16 -16 -29 -15 -22 2 c3 8 1 17 -5 20 c-5 4 -12 -3 -16 -14 c-6 -20 -16 -25 -28 -13 c-4 3 -2 12 4 20 c9 10 7 13 -9 13 c-15 0 -27 15 -46 56 c-31 67 -30 60 -6 67 c20 5 21 39 1 72 c-5 10 -6 15 -9 66 c-2 19 -10 30 -33 39 c-40 17 -54 3 -54 -55 c0 -25 -3 -45 -7 -45 c-15 0 -8 -43 13 -71 c11 -16 16 -29 10 -29 c-6 0 -11 -4 -11 -10 c0 -5 6 -10 13 -10 c18 0 37 -43 27 -59 c-5 -9 -10 -9 -14 -3 c-3 6 -1 12 5 14 c7 2 4 10 -7 18 c-11 9 -15 10 -10 3 c4 -7 3 -13 -2 -13 c-11 0 -82 93 -114 150 c-13 22 -27 38 -33 37 c-10 -4 -55 54 -55 71 c0 5 -7 15 -15 22 c-15 13 -41 62 -47 89 c-4 17 -30 52 -36 47 c-3 -4 19 -64 54 -145 c8 -18 12 -36 10 -39 c-3 -3 -1 -12 6 -19 c9 -11 9 -16 -1 -23 c-10 -6 -10 -9 -1 -15 c6 -4 9 -13 6 -20 c-6 -16 22 -77 40 -88 c8 -4 11 -20 9 -38 c-4 -34 -14 -51 -16 -28 c-1 8 -2 19 -4 24 c-1 6 -3 17 -4 25 c-1 11 -4 12 -9 3 c-4 -7 -15 5 -27 33 c-11 24 -25 44 -32 44 c-8 0 -13 12 -13 29 c0 16 -7 35 -16 42 c-15 12 -16 11 -10 -9 c14 -43 -5 -21 -34 39 c-16 34 -26 67 -24 73 c3 7 -2 19 -11 26 c-8 7 -15 20 -15 29 c0 28 -18 48 -29 33 c-7 -11 -9 -11 -14 2 c-4 9 -2 16 4 16 c16 0 0 40 -27 67 c-13 13 -24 34 -24 47 c0 12 -3 26 -7 30 c-4 3 -8 14 -9 24 c-2 9 -10 53 -18 97 c-9 44 -16 97 -16 117 c0 20 -4 39 -9 42 c-10 6 -8 -43 4 -117 c5 -33 4 -52 -5 -62 c-7 -9 -10 -18 -6 -22 c3 -3 6 -1 6 5 c0 7 5 12 10 12 c6 0 10 -9 10 -19 c0 -11 7 -47 16 -81 c8 -34 14 -64 11 -66 c-3 -3 -13 28 -23 68 c-10 40 -20 65 -22 56 c-4 -20 46 -209 59 -222 c17 -18 11 -69 -7 -62 c-10 4 -14 1 -12 -6 c6 -16 58 -22 58 -7 c0 7 3 10 6 7 c8 -9 -27 -59 -37 -52 c-5 3 -9 0 -9 -6 c0 -7 8 -9 19 -5 c26 8 45 -19 37 -52 c-4 -18 -3 -23 2 -14 c10 15 12 13 43 -44 c9 -16 23 -43 32 -60 c9 -16 14 -38 11 -47 c-4 -13 -1 -16 10 -12 c12 5 15 2 10 -10 c-3 -9 -1 -16 6 -16 c6 0 8 -4 5 -10 c-3 -5 6 -21 22 -35 c22 -19 23 -24 8 -18 c-20 6 -20 6 -1 -15 c11 -12 16 -25 13 -28 c-4 -4 -16 4 -28 17 c-18 21 -18 19 2 -11 c13 -19 31 -44 41 -54 c10 -11 18 -23 18 -28 c0 -4 5 -8 11 -8 c8 0 8 5 -1 15 c-9 10 -9 15 -1 15 c6 0 11 5 11 11 c0 6 -7 9 -15 5 c-9 -3 -15 0 -15 10 c0 21 20 13 39 -16 c9 -13 11 -21 5 -17 c-7 4 -11 -2 -11 -18 c0 -13 2 -24 6 -23 c21 2 31 -4 31 -20 c0 -9 14 -35 31 -55 c23 -28 29 -41 20 -50 c-6 -6 -14 -7 -18 -3 c-4 4 -1 12 7 17 c12 9 12 10 -3 5 c-17 -5 -77 46 -77 66 c0 5 -4 7 -10 3 c-5 -3 -17 6 -26 20 c-15 23 -43 38 -29 15 c3 -5 2 -10 -4 -10 c-6 0 -15 9 -21 20 c-6 11 -16 17 -25 14 c-8 -4 -15 -2 -15 4 c0 16 30 23 36 8 c3 -7 16 -13 30 -13 l24 0 l-30 30 c-17 17 -30 35 -30 39 c0 5 -5 6 -10 3 c-6 -4 -8 -15 -5 -26 c12 -36 -10 -18 -69 56 c-32 41 -62 75 -67 75 c-5 0 -9 7 -9 15 c0 8 -9 20 -20 27 c-11 7 -20 19 -20 26 c0 7 -11 17 -25 22 c-18 7 -23 14 -18 27 c6 16 5 16 -9 5 c-19 -15 -44 17 -34 43 c3 9 0 12 -8 9 c-8 -3 -27 16 -47 48 c-18 29 -36 55 -39 58 c-3 3 -5 10 -6 15 c-3 26 -17 55 -28 55 c-6 0 -5 4 3 9 c11 7 9 11 -7 20 c-14 7 -27 32 -37 66 c-9 30 -20 57 -25 60 c-5 3 -6 20 -3 39 c3 18 1 36 -4 39 c-6 4 -9 -5 -6 -21 c3 -23 2 -24 -6 -7 c-14 28 -13 58 0 49 c8 -4 9 1 4 15 c-6 19 -16 118 -17 161 c-1 35 14 195 18 202 c3 4 1 8 -5 8 c-5 0 -12 -8 -16 -19 z M 514 6575 c3 -8 1 -15 -4 -15 c-6 0 -10 7 -10 15 c0 8 2 15 4 15 c2 0 6 -7 10 -15 z M 547 6458 c-3 -8 -6 -5 -6 6 c-1 11 2 17 5 13 c3 -3 4 -12 1 -19 z M 590 6365 c0 -5 -5 -3 -10 5 c-5 8 -10 20 -10 25 c0 6 5 3 10 -5 c5 -8 10 -19 10 -25 z M 990 6245 c0 -7 11 -22 24 -32 c13 -10 27 -30 31 -43 c4 -14 14 -34 21 -45 c16 -22 18 -39 5 -31 c-10 7 -101 159 -101 170 c0 4 5 4 10 1 c6 -3 10 -12 10 -20 z M 865 6050 c-3 -5 -12 -10 -18 -10 c-7 0 -6 4 3 10 c19 12 23 12 15 0 z M 675 5910 c3 -5 1 -10 -4 -10 c-6 0 -11 5 -11 10 c0 6 2 10 4 10 c3 0 8 -4 11 -10 z M 871 5863 c13 -16 12 -17 -3 -4 c-17 13 -22 21 -14 21 c2 0 10 -8 17 -17 z M 1344 5798 c-3 -4 -10 -8 -15 -8 c-6 0 -8 4 -5 9 c3 4 -6 19 -19 31 c-14 13 -25 28 -25 34 c0 5 16 -5 35 -24 c19 -18 32 -37 29 -42 z M 887 5754 c-9 -9 -28 6 -21 18 c4 6 10 6 17 -1 c6 -6 8 -13 4 -17 z M 914 5764 c3 -8 2 -12 -4 -9 c-6 3 -10 10 -10 16 c0 14 7 11 14 -7 z M 1394 5744 c3 -8 2 -12 -4 -9 c-6 3 -10 10 -10 16 c0 14 7 11 14 -7 z M 987 5685 c0 -8 -4 -12 -9 -9 c-5 3 -6 10 -3 15 c9 13 12 11 12 -6 z M 964 5664 c8 -21 -7 -17 -21 6 c-11 16 -10 18 1 14 c8 -3 17 -12 20 -20 z M 1480 5658 c0 -12 -6 -9 -26 13 c-19 22 -19 22 4 8 c12 -8 22 -17 22 -21 z M 1045 5640 c3 -5 1 -10 -4 -10 c-6 0 -11 5 -11 10 c0 6 2 10 4 10 c3 0 8 -4 11 -10 z M 1020 5615 c0 -8 -4 -15 -9 -15 c-5 0 -11 7 -15 15 c-3 9 0 15 9 15 c8 0 15 -7 15 -15 z M 4079 5467 c0 -21 -1 -21 -9 -2 c-12 28 -12 37 0 30 c6 -3 10 -16 9 -28 z M 6875 5462 c-3 -3 -11 0 -18 7 c-9 10 -8 11 6 5 c10 -3 15 -9 12 -12 z M 4700 5466 c0 -3 -4 -8 -10 -11 c-5 -3 -10 -1 -10 4 c0 6 5 11 10 11 c6 0 10 -2 10 -4 z M 6550 5446 c0 -2 -7 -7 -16 -10 c-8 -3 -12 -2 -9 4 c6 10 25 14 25 6 z M 934 5401 c-4 -3 -9 0 -11 7 c-3 6 -9 10 -14 6 c-5 -3 -9 3 -9 12 c0 16 2 16 20 -1 c11 -10 17 -21 14 -24 z M 6200 5429 c12 -8 9 -10 -12 -6 c-16 2 -28 1 -28 -3 c0 -12 -107 -39 -130 -33 c-14 4 -20 1 -18 -8 c2 -8 -2 -13 -8 -12 c-5 1 -27 -2 -47 -7 c-41 -9 -49 1 -14 18 c22 12 55 20 115 29 c17 3 32 10 32 15 c0 6 7 8 15 4 c8 -3 25 -1 37 4 c31 12 40 12 58 -1 z M 6485 5430 c3 -5 2 -10 -4 -10 c-5 0 -13 5 -16 10 c-3 6 -2 10 4 10 c5 0 13 -4 16 -10 z M 890 5400 c0 -5 -4 -10 -9 -10 c-6 0 -13 5 -16 10 c-3 6 1 10 9 10 c9 0 16 -4 16 -10 z M 6610 5400 c0 -5 -4 -10 -10 -10 c-5 0 -10 5 -10 10 c0 6 5 10 10 10 c6 0 10 -4 10 -10 z M 6680 5381 c0 -9 -52 -51 -64 -52 c-6 0 -20 -3 -31 -5 c-11 -2 -36 -6 -55 -8 c-19 -2 -48 -7 -65 -11 c-23 -5 -26 -4 -15 4 c13 9 13 11 -2 11 c-10 0 -18 -5 -18 -12 c0 -7 -6 -6 -17 4 c-10 9 -25 13 -33 10 c-10 -3 -12 -1 -5 6 c6 6 28 12 50 14 c22 2 43 7 46 11 c3 4 36 10 72 13 c36 2 76 8 88 13 c26 9 49 10 49 2 z M 939 5361 c13 -12 18 -22 11 -26 c-5 -3 -10 -2 -10 2 c0 5 -12 16 -27 25 c-18 11 -22 18 -12 18 c9 0 26 -9 38 -19 z M 985 5360 c3 -6 -1 -7 -9 -4 c-18 7 -21 14 -7 14 c6 0 13 -4 16 -10 z M 5905 5350 c3 -5 -1 -10 -10 -10 c-9 0 -13 5 -10 10 c3 6 8 10 10 10 c2 0 7 -4 10 -10 z M 6350 5323 c-8 -3 -23 -10 -32 -15 c-11 -5 -18 -5 -18 1 c0 10 23 18 50 19 c13 0 13 0 0 -5 z M 6399 5299 c-16 -10 -23 -4 -14 10 c3 6 11 8 17 5 c6 -4 5 -9 -3 -15 z M 6696 5271 c-4 -5 0 -12 6 -14 c8 -4 7 -6 -3 -6 c-9 -1 -19 6 -23 14 c-3 9 0 15 10 15 c8 0 13 -4 10 -9 z M 6610 5250 c0 -5 -12 -10 -27 -9 c-25 0 -26 1 -8 9 c27 12 35 12 35 0 z M 3800 5205 c0 -8 -2 -15 -4 -15 c-2 0 -6 7 -10 15 c-3 8 -1 15 4 15 c6 0 10 -7 10 -15 z M 1246 5133 c-7 -7 -26 7 -26 19 c0 6 6 6 15 -2 c9 -7 13 -15 11 -17 z M 1276 5145 c9 -8 11 -15 6 -15 c-5 0 -15 7 -22 15 c-7 8 -9 15 -6 15 c4 0 14 -7 22 -15 z M 6078 5125 c-10 -10 -49 -14 -43 -4 c4 5 10 7 15 4 c5 -3 12 0 15 6 c4 5 10 8 13 5 c3 -3 3 -8 0 -11 z M 1266 5093 c-2 -10 10 -30 25 -46 c34 -32 37 -42 9 -27 c-11 6 -20 8 -20 4 c0 -3 -6 -1 -13 5 c-8 6 -18 7 -22 3 c-5 -4 -5 -2 -2 5 c4 6 1 14 -5 16 c-9 4 -10 8 -2 14 c6 4 13 16 17 26 c3 9 8 17 11 17 c2 0 3 -8 2 -17 z M 1240 5090 c0 -5 -4 -10 -10 -10 c-5 0 -10 5 -10 10 c0 6 5 10 10 10 c6 0 10 -4 10 -10 z M 1350 5065 c0 -8 -2 -15 -4 -15 c-2 0 -6 7 -10 15 c-3 8 -1 15 4 15 c6 0 10 -7 10 -15 z M 1390 5004 c0 -8 -5 -14 -11 -14 c-5 0 -7 5 -3 12 c5 7 2 9 -9 5 c-8 -3 -18 0 -20 7 c-4 9 2 11 19 8 c13 -2 24 -11 24 -18 z M 2830 5020 c0 -5 -2 -10 -4 -10 c-3 0 -8 5 -11 10 c-3 6 -1 10 4 10 c6 0 11 -4 11 -10 z M 5901 4997 c-15 -39 -167 -137 -212 -137 c-6 0 16 15 51 32 c34 18 80 52 101 77 c22 24 39 38 40 30 c0 -8 5 -3 10 10 c5 13 12 22 14 19 c3 -3 1 -17 -4 -31 z M 1465 4962 c-7 -8 -35 7 -35 18 c0 6 7 6 20 -2 c10 -7 17 -14 15 -16 z M 1445 4910 c3 -5 1 -10 -4 -10 c-6 0 -11 5 -11 10 c0 6 2 10 4 10 c3 0 8 -4 11 -10 z M 6960 4880 c-20 -13 -33 -13 -25 0 c3 6 14 10 23 10 c15 0 15 -2 2 -10 z M 1414 4867 c-2 -7 3 -21 12 -32 c8 -11 13 -14 9 -7 c-3 6 -1 12 4 12 c6 0 11 -4 11 -9 c0 -17 -20 -23 -35 -11 c-8 7 -15 9 -15 5 c0 -5 -9 0 -20 10 c-11 10 -20 22 -20 27 c0 5 9 6 20 3 c11 -4 20 -2 20 4 c0 6 4 11 10 11 c5 0 7 -6 4 -13 z M 1490 4845 c3 0 14 -6 25 -12 c18 -10 16 -12 -16 -10 c-26 1 -35 7 -36 20 c-1 11 2 15 10 10 c7 -4 14 -8 17 -8 z M 5667 4854 c-3 -3 -12 -4 -19 -1 c-8 3 -5 6 6 6 c11 1 17 -2 13 -5 z M 7075 4830 c3 -5 1 -10 -4 -10 c-6 0 -11 5 -11 10 c0 6 2 10 4 10 c3 0 8 -4 11 -10 z M 7033 4814 c-6 -16 -45 -26 -57 -14 c-7 7 0 10 18 10 c15 0 25 4 22 8 c-3 5 1 9 8 9 c8 0 12 -6 9 -13 z M 7170 4800 c0 -5 -2 -10 -4 -10 c-3 0 -8 5 -11 10 c-3 6 -1 10 4 10 c6 0 11 -4 11 -10 z M 6332 4764 c-12 -8 -28 -12 -34 -8 c-9 6 -5 10 12 15 c41 11 46 10 22 -7 z M 5470 4747 c0 -8 -3 -8 -9 2 c-6 9 -11 10 -15 2 c-9 -14 -26 -14 -26 0 c0 5 4 8 9 4 c5 -3 12 -1 16 5 c8 13 25 3 25 -13 z M 6270 4750 c0 -5 -7 -10 -16 -10 c-8 0 -12 5 -9 10 c3 6 10 10 16 10 c5 0 9 -4 9 -10 z M 5410 4742 c0 -4 -15 -8 -32 -9 c-30 -1 -31 -1 -8 7 c34 11 40 11 40 2 z M 6225 4740 c-3 -5 -11 -10 -16 -10 c-6 0 -7 5 -4 10 c3 6 11 10 16 10 c6 0 7 -4 4 -10 z M 6100 4721 c0 -11 -59 -26 -67 -18 c-3 3 10 10 28 16 c19 5 35 10 37 10 c1 1 2 -3 2 -8 z M 1840 4666 c0 -3 -4 -8 -10 -11 c-5 -3 -10 -1 -10 4 c0 6 5 11 10 11 c6 0 10 -2 10 -4 z M 1885 4640 c3 -5 -3 -10 -15 -10 c-12 0 -31 -5 -42 -11 c-15 -8 -19 -8 -13 1 c6 10 40 28 57 29 c4 1 10 -3 13 -9 z M 7649 4605 c36 -4 74 -11 85 -16 c16 -7 11 -8 -19 -5 c-22 3 -71 8 -108 12 c-37 4 -70 10 -72 15 c-3 4 7 6 22 4 c16 -2 57 -7 92 -10 z M 7980 4566 c0 -6 4 -4 10 4 c5 8 11 12 14 9 c18 -17 -13 -27 -48 -15 c-22 7 -33 15 -25 18 c20 7 49 -2 49 -16 z M 8417 4584 c-3 -3 -12 -4 -19 -1 c-8 3 -5 6 6 6 c11 1 17 -2 13 -5 z M 1998 4522 c6 -18 -15 -14 -22 4 c-4 10 -1 14 6 12 c6 -2 14 -10 16 -16 z M 2100 4495 c0 -12 -19 -12 -23 0 c-4 9 -1 12 9 8 c7 -3 14 -7 14 -8 z M 2670 4365 c0 -8 -4 -15 -10 -15 c-5 0 -10 7 -10 15 c0 8 5 15 10 15 c6 0 10 -7 10 -15 z M 2725 4350 c3 -5 -1 -10 -9 -10 c-9 0 -16 5 -16 10 c0 6 4 10 9 10 c6 0 13 -4 16 -10 z M 4818 4120 c-11 -18 -28 -27 -28 -16 c0 16 14 36 26 36 c12 0 12 -4 2 -20 z"/>
<path d="M 240 6529 c0 -5 5 -7 10 -4 c6 3 10 8 10 11 c0 2 -4 4 -10 4 c-5 0 -10 -5 -10 -11 z"/>
<path d="M 221 6440 c0 -8 4 -22 9 -30 c12 -18 12 -2 0 25 c-6 13 -9 15 -9 5 z"/>
<path d="M 832 6380 c2 -8 5 -17 8 -20 c3 -3 13 -21 23 -40 c48 -92 60 -111 64 -107 c2 3 -11 36 -31 73 c-37 74 -68 120 -64 94 z"/>
<path d="M 570 6270 c0 -5 5 -10 11 -10 c5 0 7 5 4 10 c-3 6 -8 10 -11 10 c-2 0 -4 -4 -4 -10 z"/>
<path d="M 486 6256 c5 -13 44 -19 44 -7 c0 5 -11 11 -24 13 c-15 3 -23 1 -20 -6 z"/>
<path d="M 513 6201 c13 -32 33 -55 23 -27 c-4 11 -2 22 3 25 c5 4 -1 11 -14 17 c-22 11 -23 10 -12 -15 z"/>
<path d="M 606 6222 c-2 -4 -1 -14 5 -22 c7 -12 9 -10 9 8 c0 23 -5 28 -14 14 z"/>
<path d="M 956 6207 c3 -10 9 -15 12 -12 c3 3 0 11 -7 18 c-10 9 -11 8 -5 -6 z"/>
<path d="M 610 6156 c0 -2 6 -9 13 -15 c10 -8 14 -7 14 4 c0 8 -6 15 -14 15 c-7 0 -13 -2 -13 -4 z"/>
<path d="M 550 6142 c0 -5 9 -18 21 -30 c11 -12 17 -27 14 -32 c-4 -6 -1 -9 6 -8 c6 2 14 -3 17 -11 c3 -9 0 -11 -9 -6 c-8 5 -11 4 -6 -1 c5 -5 13 -9 17 -9 c5 0 16 -9 24 -20 c12 -16 17 -18 27 -7 c11 10 11 14 0 25 c-10 10 -11 9 -6 -5 c13 -34 -5 -17 -36 32 c-17 28 -35 50 -40 50 c-5 0 -9 7 -9 15 c0 8 -4 15 -10 15 c-5 0 -10 -4 -10 -8 z"/>
<path d="M 1520 5733 c-14 -7 -18 -13 -10 -13 c17 0 47 17 40 23 c-3 2 -16 -2 -30 -10 z"/>
<path d="M 590 5700 c0 -5 5 -10 11 -10 c5 0 7 5 4 10 c-3 6 -8 10 -11 10 c-2 0 -4 -4 -4 -10 z"/>
<path d="M 4507 5623 c-4 -3 -7 -11 -7 -17 c0 -6 5 -5 12 2 c6 6 9 14 7 17 c-3 3 -9 2 -12 -2 z"/>
<path d="M 648 5609 c-19 -11 -25 -39 -8 -39 c6 0 10 7 10 15 c0 8 7 15 15 15 c8 0 15 -5 15 -12 c0 -6 2 -9 5 -6 c7 6 -5 38 -14 38 c-3 0 -14 -5 -23 -11 z"/>
<path d="M 4784 5558 l-19 -23 l23 19 c21 18 27 26 19 26 c-2 0 -12 -10 -23 -22 z"/>
<path d="M 710 5560 c0 -5 4 -10 9 -10 c6 0 13 5 16 10 c3 6 -1 10 -9 10 c-9 0 -16 -4 -16 -10 z"/>
<path d="M 1800 5561 c0 -6 4 -13 10 -16 c6 -3 7 1 4 9 c-7 18 -14 21 -14 7 z"/>
<path d="M 746 5541 c-12 -5 -15 -10 -9 -14 c6 -4 16 0 23 8 c14 17 13 17 -14 6 z"/>
<path d="M 4733 5521 c-24 -20 -29 -31 -14 -31 c5 0 16 11 25 25 c20 30 18 30 -11 6 z"/>
<path d="M 7185 5510 c3 -5 8 -10 11 -10 c2 0 4 5 4 10 c0 6 -5 10 -11 10 c-5 0 -7 -4 -4 -10 z"/>
<path d="M 7278 5513 c7 -3 16 -2 19 1 c4 3 -2 6 -13 5 c-11 0 -14 -3 -6 -6 z"/>
<path d="M 7340 5516 c0 -10 28 -13 41 -5 c10 6 7 9 -13 9 c-16 0 -28 -2 -28 -4 z"/>
<path d="M 1976 5485 c4 -8 10 -12 15 -9 c14 8 10 24 -6 24 c-9 0 -12 -6 -9 -15 z"/>
<path d="M 7140 5489 c0 -5 5 -7 10 -4 c6 3 10 8 10 11 c0 2 -4 4 -10 4 c-5 0 -10 -5 -10 -11 z"/>
<path d="M 7210 5496 c0 -2 9 -6 20 -9 c11 -3 18 -1 14 4 c-5 9 -34 13 -34 5 z"/>
<path d="M 7285 5490 c-3 -5 1 -10 9 -10 c8 0 18 5 21 10 c3 6 -1 10 -9 10 c-8 0 -18 -4 -21 -10 z"/>
<path d="M 7638 5493 c7 -3 16 -2 19 1 c4 3 -2 6 -13 5 c-11 0 -14 -3 -6 -6 z"/>
<path d="M 7550 5480 c0 -5 9 -10 21 -10 c11 0 17 5 14 10 c-3 6 -13 10 -21 10 c-8 0 -14 -4 -14 -10 z"/>
<path d="M 4799 5453 c-13 -16 -12 -17 4 -4 c16 13 21 21 13 21 c-2 0 -10 -8 -17 -17 z"/>
<path d="M 7648 5458 c9 -9 15 -9 24 0 c9 9 7 12 -12 12 c-19 0 -21 -3 -12 -12 z"/>
<path d="M 7240 5442 c0 -4 9 -8 20 -9 c11 -1 20 2 20 8 c0 5 -9 9 -20 9 c-11 0 -20 -4 -20 -8 z"/>
<path d="M 7300 5440 c-10 -6 -2 -7 25 -3 c49 7 58 13 19 13 c-16 0 -36 -5 -44 -10 z"/>
<path d="M 7758 5443 c6 -2 18 -2 25 0 c6 3 1 5 -13 5 c-14 0 -19 -2 -12 -5 z"/>
<path d="M 7340 5300 c0 -5 5 -10 10 -10 c6 0 10 5 10 10 c0 6 -4 10 -10 10 c-5 0 -10 -4 -10 -10 z"/>
<path d="M 7150 5290 c-13 -8 -12 -10 3 -10 c9 0 17 5 17 10 c0 12 -1 12 -20 0 z"/>
<path d="M 7288 5278 c5 -5 16 -8 23 -6 c8 3 3 7 -10 11 c-17 4 -21 3 -13 -5 z"/>
<path d="M 2305 5260 c-4 -6 -11 -8 -16 -5 c-5 4 -9 2 -9 -3 c0 -20 28 -20 33 -1 c6 21 2 25 -8 9 z"/>
<path d="M 7348 5263 c7 -3 16 -2 19 1 c4 3 -2 6 -13 5 c-11 0 -14 -3 -6 -6 z"/>
<path d="M 2320 5239 c0 -5 5 -7 10 -4 c6 3 10 8 10 11 c0 2 -4 4 -10 4 c-5 0 -10 -5 -10 -11 z"/>
<path d="M 7890 5240 c8 -5 20 -10 25 -10 c6 0 3 5 -5 10 c-8 5 -19 10 -25 10 c-5 0 -3 -5 5 -10 z"/>
<path d="M 8198 5224 c3 -17 8 -22 15 -15 c11 11 3 41 -11 41 c-5 0 -7 -12 -4 -26 z"/>
<path d="M 1035 5220 c-3 -5 -1 -10 4 -10 c6 0 11 5 11 10 c0 6 -2 10 -4 10 c-3 0 -8 -4 -11 -10 z"/>
<path d="M 7990 5220 c0 -5 5 -10 11 -10 c5 0 7 5 4 10 c-3 6 -8 10 -11 10 c-2 0 -4 -4 -4 -10 z"/>
<path d="M 7470 5210 c0 -5 5 -10 10 -10 c6 0 10 5 10 10 c0 6 -4 10 -10 10 c-5 0 -10 -4 -10 -10 z"/>
<path d="M 2470 5202 c0 -12 19 -26 26 -19 c2 2 -2 10 -11 17 c-9 8 -15 8 -15 2 z"/>
<path d="M 7720 5180 c0 -5 5 -10 10 -10 c6 0 10 5 10 10 c0 6 -4 10 -10 10 c-5 0 -10 -4 -10 -10 z"/>
<path d="M 1124 5135 c3 -29 22 -52 33 -42 c4 4 1 13 -5 19 c-7 7 -12 20 -12 30 c0 10 -4 18 -9 18 c-5 0 -8 -11 -7 -25 z"/>
<path d="M 1095 5140 c-3 -5 -1 -10 4 -10 c6 0 11 5 11 10 c0 6 -2 10 -4 10 c-3 0 -8 -4 -11 -10 z"/>
<path d="M 2505 5140 c-3 -5 -2 -10 4 -10 c5 0 13 5 16 10 c3 6 2 10 -4 10 c-5 0 -13 -4 -16 -10 z"/>
<path d="M 7970 5140 c0 -5 5 -10 10 -10 c6 0 10 5 10 10 c0 6 -4 10 -10 10 c-5 0 -10 -4 -10 -10 z"/>
<path d="M 1160 5130 c0 -5 5 -10 10 -10 c6 0 10 5 10 10 c0 6 -4 10 -10 10 c-5 0 -10 -4 -10 -10 z"/>
<path d="M 1150 5070 c0 -5 7 -10 16 -10 c8 0 12 5 9 10 c-3 6 -10 10 -16 10 c-5 0 -9 -4 -9 -10 z"/>
<path d="M 2895 5050 c-3 -5 -1 -10 4 -10 c6 0 11 5 11 10 c0 6 -2 10 -4 10 c-3 0 -8 -4 -11 -10 z"/>
<path d="M 3540 5010 c0 -5 5 -10 10 -10 c6 0 10 5 10 10 c0 6 -4 10 -10 10 c-5 0 -10 -4 -10 -10 z"/>
<path d="M 3501 4974 c6 -7 17 -10 25 -7 c20 7 18 10 -11 15 c-20 4 -23 2 -14 -8 z"/>
<path d="M 6260 4960 c0 -5 5 -10 10 -10 c6 0 10 5 10 10 c0 6 -4 10 -10 10 c-5 0 -10 -4 -10 -10 z"/>
<path d="M 6790 4880 c0 -5 5 -10 10 -10 c6 0 10 5 10 10 c0 6 -4 10 -10 10 c-5 0 -10 -4 -10 -10 z"/>
<path d="M 6820 4879 c0 -5 5 -7 10 -4 c6 3 10 8 10 11 c0 2 -4 4 -10 4 c-5 0 -10 -5 -10 -11 z"/>
<path d="M 6713 4873 c9 -2 25 -2 35 0 c9 3 1 5 -18 5 c-19 0 -27 -2 -17 -5 z"/>
<path d="M 7403 4854 c3 -3 25 -8 49 -10 c30 -3 39 -1 28 6 c-16 10 -87 14 -77 4 z"/>
<path d="M 7526 4851 c-3 -5 5 -11 19 -13 c28 -6 34 6 9 16 c-20 8 -22 8 -28 -3 z"/>
<path d="M 7585 4840 c-3 -5 1 -10 9 -10 c9 0 16 5 16 10 c0 6 -4 10 -9 10 c-6 0 -13 -4 -16 -10 z"/>
<path d="M 7631 4834 c13 -16 29 -19 29 -5 c0 5 -9 11 -21 14 c-16 4 -18 3 -8 -9 z"/>
<path d="M 8430 4836 c0 -7 6 -19 14 -25 c12 -10 14 -9 11 6 c-2 10 -4 21 -4 26 c-2 13 -21 7 -21 -7 z"/>
<path d="M 7700 4819 c0 -5 5 -7 10 -4 c6 3 10 8 10 11 c0 2 -4 4 -10 4 c-5 0 -10 -5 -10 -11 z"/>
<path d="M 7265 4810 c3 -5 8 -10 11 -10 c2 0 4 5 4 10 c0 6 -5 10 -11 10 c-5 0 -7 -4 -4 -10 z"/>
<path d="M 7295 4810 c-4 -6 5 -10 19 -10 c14 0 26 5 26 10 c0 6 -9 10 -19 10 c-11 0 -23 -4 -26 -10 z"/>
<path d="M 7438 4793 c7 -3 16 -2 19 1 c4 3 -2 6 -13 5 c-11 0 -14 -3 -6 -6 z"/>
<path d="M 1480 4730 c0 -5 5 -10 10 -10 c6 0 10 5 10 10 c0 6 -4 10 -10 10 c-5 0 -10 -4 -10 -10 z"/>
<path d="M 1748 4663 c7 -3 16 -2 19 1 c4 3 -2 6 -13 5 c-11 0 -14 -3 -6 -6 z"/>
<path d="M 8250 4640 c0 -5 7 -10 16 -10 c8 0 12 5 9 10 c-3 6 -10 10 -16 10 c-5 0 -9 -4 -9 -10 z"/>
<path d="M 1755 4610 c3 -5 8 -10 11 -10 c2 0 4 5 4 10 c0 6 -5 10 -11 10 c-5 0 -7 -4 -4 -10 z"/>
<path d="M 1697 4584 c2 -7 11 -10 19 -7 c19 7 18 10 -5 16 c-13 3 -18 1 -14 -9 z"/>
<path d="M 8090 4540 c0 -5 5 -10 10 -10 c6 0 10 5 10 10 c0 6 -4 10 -10 10 c-5 0 -10 -4 -10 -10 z"/>
<path d="M 7246 4521 c-4 -7 -5 -15 -2 -18 c9 -9 19 4 14 18 c-4 11 -6 11 -12 0 z"/>
<path d="M 8121 4527 c2 -1 13 -9 24 -17 c19 -14 19 -14 6 3 c-7 9 -18 17 -24 17 c-6 0 -8 -1 -6 -3 z"/>
<path d="M 7670 4483 c0 -19 21 -27 31 -12 c13 22 11 28 -11 26 c-11 -1 -20 -7 -20 -14 z"/>
<path d="M 6420 4486 c0 -2 9 -6 20 -9 c11 -3 18 -1 14 4 c-5 9 -34 13 -34 5 z"/>
<path d="M 7030 4480 c0 -5 5 -10 10 -10 c6 0 10 5 10 10 c0 6 -4 10 -10 10 c-5 0 -10 -4 -10 -10 z"/>
<path d="M 8140 4476 c0 -3 22 -17 49 -32 c28 -14 52 -33 55 -40 c3 -8 13 -14 22 -14 c13 0 10 6 -12 26 c-39 34 -114 74 -114 60 z"/>
<path d="M 2133 4400 c-1 -11 2 -20 8 -20 c5 0 9 9 9 20 c0 11 -4 20 -8 20 c-4 0 -8 -9 -9 -20 z"/>
<path d="M 2595 4370 c-3 -5 -1 -10 4 -10 c6 0 11 5 11 10 c0 6 -2 10 -4 10 c-3 0 -8 -4 -11 -10 z"/>
<path d="M 8272 4369 c2 -7 10 -15 17 -17 c8 -3 12 1 9 9 c-2 7 -10 15 -17 17 c-8 3 -12 -1 -9 -9 z"/>
<path d="M 2540 4360 c0 -5 5 -10 10 -10 c6 0 10 5 10 10 c0 6 -4 10 -10 10 c-5 0 -10 -4 -10 -10 z"/>
<path d="M 2420 4350 c-13 -8 -13 -10 2 -10 c9 0 20 5 23 10 c8 13 -5 13 -25 0 z"/>
<path d="M 2615 4340 c3 -5 8 -10 11 -10 c2 0 4 5 4 10 c0 6 -5 10 -11 10 c-5 0 -7 -4 -4 -10 z"/>
<path d="M 7965 4339 c-4 -6 -5 -12 -2 -15 c2 -3 7 2 10 11 c7 17 1 20 -8 4 z"/>
<path d="M 8263 4326 c-9 -11 -9 -18 0 -30 c10 -14 12 -12 13 14 c1 16 1 30 0 30 c-1 -1 -6 -7 -13 -14 z"/>
<path d="M 8295 4319 c-10 -15 3 -25 16 -12 c7 7 7 13 1 17 c-6 3 -14 1 -17 -5 z"/>
<path d="M 2580 4270 c0 -5 5 -10 11 -10 c5 0 7 5 4 10 c-3 6 -8 10 -11 10 c-2 0 -4 -4 -4 -10 z"/>
<path d="M 8405 4200 c-3 -5 1 -10 9 -10 c9 0 16 5 16 10 c0 6 -4 10 -9 10 c-6 0 -13 -4 -16 -10 z"/>
<path d="M 3615 4130 c-3 -5 -1 -10 4 -10 c6 0 11 5 11 10 c0 6 -2 10 -4 10 c-3 0 -8 -4 -11 -10 z"/>
<path d="M 3527 4103 c-14 -14 -6 -20 19 -15 c19 3 22 7 12 13 c-16 11 -23 11 -31 2 z"/>
<path d="M 3504 3986 c-10 -8 -16 -18 -12 -21 c4 -4 15 0 24 9 c9 9 14 19 12 21 c-2 3 -13 -2 -24 -9 z"/>
<path d="M 3437 3950 c-32 -33 -25 -40 12 -11 c13 10 22 23 20 30 c-2 6 -16 -2 -32 -19 z"/>
<path d="M 4780 3960 c0 -5 5 -10 11 -10 c5 0 7 5 4 10 c-3 6 -8 10 -11 10 c-2 0 -4 -4 -4 -10 z"/>
<path d="M 4355 3670 c3 -5 8 -10 11 -10 c2 0 4 5 4 10 c0 6 -5 10 -11 10 c-5 0 -7 -4 -4 -10 z"/>
</g>
</svg>
