<svg xmlns="http://www.w3.org/2000/svg" width="512" height="512" viewBox="-322.96 -33 891 891">
<title>Pratibha sumi vine (cleaned master)</title>
<g transform="translate(-410.935195,941.000000) scale(1.000000,-1.000000)" fill="#000000" stroke="none">
<path d="M 542 938 l-3 -3 l-2 -2 l-2 -1 l-1 0 l-2 0 l0 -2 l0 -1 l-1 0 l-2 1 l-1 -3 l-1 -3 l1 0 l1 -1 l-1 -1 l0 -2 l-2 -1 l-2 0 l1 -1 l1 -1 l-1 -1 l0 -2 l-1 0 l-2 1 l0 -3 l0 -3 l2 0 l1 1 l1 -7 l0 -6 l-1 -2 l-1 -1 l-5 -2 l-5 -3 l-2 -2 l-2 -1 l-2 -5 l-2 -5 l-3 -5 l-3 -5 l0 -4 l0 -3 l4 -7 l3 -6 l4 -4 l3 -4 l0 -1 l0 -2 l2 -2 l2 -2 l3 0 l3 -1 l5 -5 l5 -6 l1 -4 l1 -4 l0 -4 l-1 -4 l-1 -1 l-1 0 l1 -2 l0 -2 l-1 -3 l-2 -3 l-1 -2 l-1 -1 l-2 -4 l-1 -4 l-1 -1 l-1 -1 l-1 -2 l-1 -2 l1 -2 l0 -1 l2 2 l2 1 l0 1 l0 2 l3 2 l4 3 l2 1 l2 1 l0 -1 l0 0 l-1 -6 l-2 -6 l-3 -8 l-4 -7 l-2 -4 l-2 -3 l-2 -2 l-2 -3 l0 -2 l-1 -1 l0 -1 l0 0 l-3 -4 l-3 -3 l-1 2 l-1 3 l0 -2 l0 -2 l-2 -2 l-2 -2 l0 1 l-1 0 l0 -2 l0 -2 l-1 -1 l-2 -2 l1 0 l0 -1 l-1 0 l-1 0 l0 -1 l0 -2 l-1 0 l0 0 l-2 -4 l-2 -4 l-2 -1 l-2 0 l0 -3 l-1 -2 l-1 0 l-1 0 l0 -2 l0 -2 l-4 -6 l-4 -6 l0 -6 l-1 -6 l-1 -2 l0 -2 l-1 -3 l-1 -3 l-1 0 l-1 0 l0 1 l0 2 l-2 3 l-2 4 l0 1 l0 2 l-2 3 l-2 4 l0 2 l0 2 l-2 1 l-1 0 l-4 3 l-4 2 l-3 0 l-3 0 l-4 1 l-3 2 l0 1 l0 1 l-1 0 l-1 0 l-2 2 l-2 2 l-1 0 l-1 0 l1 2 l0 2 l-1 0 l-1 0 l-1 4 l-1 3 l1 1 l0 1 l1 -1 l1 0 l0 2 l-1 2 l2 2 l1 1 l-1 1 l-1 1 l2 2 l3 3 l1 8 l2 8 l2 3 l1 2 l0 1 l-1 0 l-1 -2 l-1 -2 l-4 -4 l-5 -4 l-2 -3 l-1 -3 l-1 0 l-1 0 l-6 -4 l-5 -3 l-3 -7 l-2 -6 l0 -3 l0 -3 l-1 0 l0 1 l0 -3 l0 -4 l0 -1 l1 -1 l-1 0 l0 0 l-1 0 l-1 0 l0 -4 l1 -5 l1 -2 l1 -2 l-1 -3 l0 -4 l2 -2 l2 -2 l-1 0 l0 -1 l1 -2 l1 -3 l1 0 l1 1 l0 -2 l0 -2 l0 -3 l0 -3 l1 1 l1 0 l0 -1 l0 -2 l1 0 l1 1 l-1 -1 l0 -2 l1 0 l1 0 l0 -6 l-1 -6 l-2 -2 l-1 -2 l1 0 l1 1 l1 -6 l2 -5 l4 -3 l4 -3 l0 -2 l-1 -1 l1 0 l1 1 l4 -2 l5 -3 l3 -1 l4 0 l5 1 l5 1 l0 1 l0 1 l1 0 l1 -1 l0 1 l0 1 l3 0 l2 0 l0 1 l-1 1 l1 0 l1 0 l5 -4 l5 -3 l3 -3 l3 -3 l5 -6 l5 -5 l0 -1 l0 -1 l3 -5 l4 -5 l3 -4 l2 -4 l1 1 l0 1 l-1 1 l-1 0 l0 1 l0 1 l1 0 l2 -1 l-3 2 l-2 1 l0 1 l0 1 l1 0 l1 0 l2 -3 l1 -2 l0 -4 l1 -3 l2 -6 l3 -6 l2 -2 l1 -1 l0 0 l0 1 l-2 4 l-3 5 l2 0 l1 1 l1 -2 l1 -2 l-1 -1 l0 -1 l1 0 l1 1 l2 -4 l3 -4 l0 -1 l0 0 l-1 0 l-1 1 l-1 -1 l-2 0 l1 -2 l1 -2 l0 -2 l0 -2 l1 0 l2 0 l-1 3 l-1 3 l1 0 l1 0 l1 -3 l0 -2 l1 -2 l0 -1 l-1 -1 l-1 0 l1 -2 l1 -1 l-1 -8 l0 -8 l-1 -1 l-1 0 l1 -2 l0 -1 l-1 0 l-1 0 l0 -1 l1 -1 l-1 -3 l-2 -2 l-2 -5 l-1 -4 l-1 0 l-1 0 l-1 -2 l0 -2 l-1 -2 l0 -1 l-1 -1 l-1 -1 l-1 1 l-1 1 l-1 0 l0 1 l0 2 l0 2 l-1 0 l0 0 l-1 -1 l-2 -2 l-1 -3 l-2 -3 l-3 -1 l-2 -1 l0 -1 l0 -1 l-2 -3 l-2 -2 l0 -2 l0 -1 l-3 -3 l-2 -2 l-6 -7 l-5 -7 l-4 -4 l-4 -4 l-8 -12 l-8 -12 l-4 -8 l-4 -8 l-1 -7 l-1 -6 l2 -7 l1 -6 l0 -8 l0 -7 l1 -4 l1 -3 l1 0 l1 0 l0 -2 l0 -2 l2 0 l2 -1 l0 -1 l0 -1 l7 -7 l7 -7 l5 -5 l5 -6 l3 -1 l3 0 l0 -1 l0 -1 l2 0 l3 1 l-2 -1 l-1 -1 l1 -1 l2 0 l0 -1 l0 -1 l-2 0 l-1 0 l1 -2 l2 -1 l2 -6 l1 -5 l3 -5 l3 -4 l1 -3 l1 -2 l-1 -5 l-2 -4 l-5 -9 l-4 -9 l-6 -7 l-6 -8 l-7 -13 l-6 -14 l-2 0 l-2 0 l-3 -2 l-2 -1 l-1 -2 l0 -1 l0 -2 l0 -1 l-1 0 l0 1 l-2 -3 l-1 -2 l0 -3 l0 -2 l-2 -4 l-2 -3 l-1 -2 l0 -2 l-1 -2 l0 -2 l-1 -5 l-1 -4 l0 -4 l0 -4 l5 -9 l4 -8 l2 -2 l1 -2 l6 -2 l6 -1 l0 -2 l1 -1 l1 1 l1 0 l0 -1 l0 -1 l1 -4 l1 -4 l2 0 l2 0 l3 -6 l4 -5 l5 -9 l4 -9 l2 -2 l1 -2 l0 0 l-1 0 l2 -2 l1 -2 l1 0 l1 0 l0 5 l-1 4 l-1 2 l-2 3 l-1 3 l0 4 l-2 0 l-1 1 l0 4 l0 3 l-2 0 l-2 -1 l0 1 l0 1 l1 1 l2 1 l-2 -1 l-2 0 l0 4 l0 5 l-1 0 l-1 0 l0 2 l0 2 l-1 0 l-1 0 l0 2 l1 2 l-1 0 l-1 0 l-1 3 l-1 4 l1 0 l1 1 l-1 6 l-1 6 l1 1 l1 2 l2 8 l2 8 l2 5 l2 5 l3 3 l3 4 l1 2 l2 2 l4 5 l4 4 l9 6 l9 6 l9 3 l10 3 l0 1 l0 1 l-1 0 l-1 1 l1 2 l1 3 l4 4 l4 4 l6 2 l7 2 l4 3 l5 3 l4 5 l3 4 l3 5 l2 5 l1 6 l0 6 l-2 4 l-2 4 l0 2 l0 2 l-1 0 l-1 -1 l-1 2 l-2 2 l-2 3 l-3 4 l-1 0 l-2 0 l0 2 l0 2 l2 -1 l1 0 l0 1 l0 1 l-2 0 l-2 -1 l-2 3 l-2 2 l-2 0 l-1 0 l1 -2 l2 -2 l0 -1 l1 -1 l1 -4 l2 -4 l0 -8 l0 -8 l-1 -2 l-1 -2 l-1 -1 l-1 -1 l1 0 l1 0 l0 -2 l0 -2 l-1 -1 l-2 0 l0 -2 l0 -1 l-2 -3 l-2 -2 l-1 0 l-1 0 l-1 -1 l0 -1 l1 1 l2 0 l-2 -1 l-1 -2 l-2 1 l-2 0 l0 -1 l0 -2 l-3 -1 l-2 0 l0 -2 l1 -1 l-1 0 l0 1 l-7 -6 l-7 -6 l-6 -6 l-6 -5 l1 -1 l0 -1 l-1 0 l-1 1 l-8 -9 l-7 -8 l-1 0 l0 0 l-5 -6 l-5 -5 l0 -3 l0 -2 l-1 1 l-1 0 l0 -2 l0 -1 l-1 0 l0 1 l-2 -2 l-2 -1 l0 -1 l0 -1 l2 1 l1 2 l-1 -3 l-2 -3 l-1 0 l0 0 l1 2 l0 1 l-1 0 l-1 0 l-1 -2 l-2 -3 l1 -1 l1 0 l0 2 l0 1 l1 0 l1 -1 l-1 -2 l-1 -2 l-1 0 l0 0 l-3 -1 l-3 -2 l-3 2 l-3 2 l1 3 l2 4 l-1 1 l0 1 l1 0 l1 -1 l0 1 l0 1 l2 5 l2 5 l0 1 l1 1 l1 1 l2 2 l0 1 l0 1 l4 5 l3 5 l0 1 l0 1 l2 1 l3 1 l5 2 l6 2 l5 6 l6 6 l2 4 l2 5 l0 1 l0 2 l2 4 l2 5 l5 6 l6 6 l2 2 l3 2 l0 2 l1 2 l-2 5 l-1 6 l-3 3 l-2 3 l-5 3 l-5 2 l-8 8 l-8 7 l-3 0 l-2 0 l-1 0 l-1 0 l-2 2 l-2 2 l-5 3 l-6 2 l0 1 l0 1 l-1 0 l-2 0 l-3 3 l-3 2 l1 2 l0 2 l-1 -2 l-1 -1 l-3 3 l-4 3 l-3 4 l-3 3 l0 2 l0 3 l0 7 l-1 8 l2 3 l1 4 l2 3 l1 3 l4 4 l4 3 l1 0 l0 -1 l-1 -6 l-1 -7 l0 -4 l1 -5 l3 -3 l2 -3 l2 -5 l3 -5 l1 2 l1 1 l0 1 l0 2 l-1 -2 l-1 -1 l0 3 l1 4 l1 -1 l1 0 l0 1 l0 1 l-1 0 l-1 1 l0 3 l0 2 l1 0 l1 0 l0 1 l-1 1 l1 0 l1 1 l0 4 l0 3 l1 1 l1 0 l-1 1 l0 1 l1 0 l1 0 l-1 1 l0 1 l1 1 l2 2 l1 2 l2 3 l1 -1 l1 0 l0 1 l-1 1 l2 3 l1 3 l4 3 l3 3 l1 0 l1 0 l1 1 l1 1 l1 0 l1 0 l5 4 l4 4 l3 2 l4 3 l9 1 l9 0 l4 -3 l3 -4 l-1 0 l0 0 l4 -3 l5 -3 l2 2 l1 1 l2 -2 l1 -2 l1 0 l0 0 l1 -1 l0 -1 l-1 0 l-1 1 l0 -1 l0 -1 l1 0 l1 0 l1 2 l1 2 l0 -2 l0 -1 l2 1 l3 0 l-2 -1 l-2 -2 l0 0 l0 -1 l2 0 l2 0 l1 1 l1 1 l0 -2 l0 -1 l1 1 l0 1 l-1 2 l-1 1 l1 0 l1 -1 l0 1 l0 1 l1 -1 l1 0 l2 -1 l2 0 l1 1 l0 1 l3 -1 l3 -2 l4 2 l3 1 l0 2 l0 1 l2 0 l2 -1 l0 1 l0 2 l5 2 l6 2 l4 4 l4 3 l0 -1 l1 0 l-1 3 l0 4 l1 1 l2 1 l-2 0 l-1 -1 l0 4 l1 3 l1 1 l1 0 l3 3 l2 2 l3 1 l3 1 l2 5 l3 5 l0 2 l0 2 l-1 -1 l-1 0 l0 -2 l0 -2 l-1 0 l0 0 l-2 1 l-1 1 l1 1 l0 2 l1 0 l1 -1 l1 5 l2 5 l-1 1 l-1 0 l0 -1 l1 -1 l-1 0 l-1 0 l0 2 l0 2 l1 -1 l1 -1 l1 0 l1 0 l0 3 l0 2 l3 3 l3 2 l1 0 l1 0 l3 3 l3 3 l-2 0 l-2 -1 l-2 -1 l-2 0 l1 -1 l0 -1 l-2 1 l-2 0 l0 -1 l1 -1 l-2 1 l-2 0 l-4 -3 l-3 -4 l-1 0 l-2 0 l-2 -3 l-3 -3 l1 0 l2 -1 l-2 0 l-1 0 l0 -1 l0 -2 l-4 -2 l-3 -1 l-2 0 l-2 0 l0 -1 l0 -1 l-2 0 l-2 0 l-4 5 l-4 4 l-5 3 l-4 3 l-7 0 l-7 1 l-2 0 l-1 0 l-2 1 l-1 1 l-7 0 l-7 -1 l-4 -4 l-4 -5 l-2 -2 l-2 -3 l-3 -1 l-2 -1 l-1 -2 l0 -1 l-2 -4 l-1 -3 l-1 -1 l-2 -1 l0 -2 l0 -2 l-6 -5 l-5 -6 l-3 0 l-2 0 l-3 -3 l-3 -2 l-1 -3 l-1 -3 l-1 -2 l-1 -2 l-3 -4 l-3 -4 l-5 -3 l-4 -3 l-2 2 l-3 1 l0 2 l1 1 l1 3 l0 3 l3 3 l2 4 l0 0 l0 1 l2 5 l2 5 l0 0 l0 1 l1 0 l1 0 l0 1 l0 1 l6 9 l5 8 l0 1 l0 1 l1 0 l1 0 l0 1 l0 1 l2 3 l3 2 l-1 0 l0 1 l1 0 l1 0 l1 4 l1 3 l2 0 l1 0 l0 1 l-1 1 l1 0 l1 1 l-1 2 l0 1 l1 1 l2 0 l0 2 l0 3 l2 2 l2 2 l0 2 l0 2 l1 1 l2 1 l-2 0 l-2 -1 l1 2 l0 1 l1 0 l1 0 l0 1 l-1 1 l1 1 l1 1 l2 0 l1 1 l1 1 l0 1 l-1 0 l-2 -1 l0 2 l1 3 l0 0 l0 1 l2 -1 l1 0 l0 1 l0 2 l-1 0 l-1 0 l0 2 l1 3 l-1 3 l-2 4 l1 0 l1 0 l-1 2 l0 2 l-1 0 l-1 0 l0 3 l0 2 l-1 0 l-1 0 l-1 3 l0 3 l0 1 l0 1 l-1 2 l-1 1 l1 0 l1 0 l-2 2 l-1 1 l1 1 l1 0 l0 2 l0 1 l-1 -1 l-2 -1 l0 2 l0 2 l-3 10 l-3 10 l-3 8 l-2 8 l-5 4 l-4 5 l-3 2 l-3 3 l-3 7 l-4 6 l-2 0 l-1 1 l-1 -2 l-1 -1 l-1 3 l-2 3 l0 4 l0 4 l2 7 l1 8 l1 2 l0 2 l2 2 l3 3 l1 2 l2 1 l0 1 l0 1 l3 3 l3 3 l1 0 l1 0 l1 3 l2 3 l1 0 l1 0 l0 2 l-1 2 l3 3 l2 3 l2 2 l3 3 l3 5 l4 5 l2 -1 l1 0 l-1 2 l0 3 l1 1 l2 1 l0 1 l0 1 l3 4 l4 5 l1 2 l1 3 l1 0 l1 0 l0 1 l-1 1 l1 1 l2 2 l0 1 l0 1 l2 5 l3 5 l2 3 l2 4 l0 8 l0 8 l-1 -1 l-1 0 l0 2 l0 3 l0 1 l0 1 l0 1 l0 2 l1 0 l2 1 l-2 0 l-1 0 l0 5 l0 6 l0 1 l0 1 l0 1 l0 1 l1 -2 l1 -1 l0 1 l-1 2 l2 1 l1 2 l0 2 l0 2 l2 0 l1 0 l0 2 l0 2 l1 3 l1 3 l1 -3 l1 -3 l-1 5 l0 5 l-1 3 l0 3 l-1 2 l-1 3 l2 4 l1 4 l1 0 l1 0 l2 2 l2 2 l0 1 l0 1 l-1 -1 l-1 0 l0 1 l1 1 l1 0 l1 -1 l2 3 l2 3 l1 5 l0 6 l-1 -2 l0 -2 l-2 -5 l-3 -4 l-2 -2 l-2 -2 l0 0 l-1 1 l2 2 l1 3 l0 1 l0 1 l-1 -1 l-2 -1 l1 3 l0 4 l0 1 l0 1 l2 -1 l1 0 l0 1 l0 1 l-1 0 l-2 0 l0 1 l0 1 l1 1 l2 1 l-2 0 l-1 -1 l-2 5 l-3 6 l-5 4 l-5 5 l-2 5 l-2 4 l1 1 l0 1 l-1 2 l-2 1 l0 5 l1 6 l0 1 l1 1 l-1 0 l-1 1 l0 -1 l0 -1 l-1 0 l-1 0 l0 2 l1 3 l-1 -2 l-1 -1 l-1 1 l-2 1 l0 -1 l-1 -1 l0 2 l0 2 l-1 0 l-1 1 l1 4 l1 5 l1 2 l0 2 l1 -1 l1 0 l0 1 l0 1 l2 2 l3 2 l-1 1 l0 1 l-1 0 l-1 0 l-3 -3 z M 567 846 l-1 -2 l-1 0 l-1 0 l1 2 l1 1 l1 0 l1 0 l-1 -1 z M 526 777 l-1 -2 l-1 0 l0 1 l1 1 l1 2 l1 0 l0 0 l-1 -2 z M 432 714 l0 -1 l0 0 l-1 0 l0 1 l-1 1 l1 0 l1 0 l0 -1 z M 515 578 l0 -1 l-2 0 l-1 1 l0 1 l0 2 l-1 -1 l-1 0 l0 0 l0 1 l1 2 l0 1 l2 -2 l2 -2 l0 -2 z M 634 478 l0 -1 l0 0 l-1 0 l0 1 l-1 1 l1 0 l1 0 l0 -1 z M 588 433 l1 -1 l-1 1 l-2 1 l0 1 l0 0 l1 0 l1 0 l0 -2 z M 495 346 l3 -1 l0 -1 l-1 0 l-3 2 l-4 1 l0 2 l0 3 l1 -3 l1 -2 l3 -1 z M 478 206 l-1 -1 l0 0 l0 1 l1 1 l0 2 l1 0 l0 -1 l-1 -2 z"/>
<path d="M 540 938 l0 -1 l1 1 l1 0 l0 1 l0 0 l-1 0 l-1 0 l0 -1 z"/>
<path d="M 566 878 l0 -1 l1 0 l1 0 l0 1 l-1 1 l-1 0 l0 0 l0 -1 z"/>
<path d="M 619 760 l-2 -1 l0 1 l-1 0 l-1 -1 l0 -2 l-1 1 l-1 0 l-2 -1 l-1 0 l-2 -4 l-2 -3 l0 -2 l0 -2 l-1 0 l-1 0 l1 -1 l0 -2 l-1 -1 l-2 -2 l0 -1 l0 -1 l-3 -1 l-4 -2 l-1 0 l-2 0 l-5 2 l-4 3 l-2 0 l-1 0 l-6 -1 l-6 -1 l-2 -1 l-1 0 l-1 0 l-1 0 l-3 -3 l-3 -3 l-1 0 l-1 0 l0 -1 l0 -2 l-1 0 l-1 0 l-2 -4 l-2 -5 l-1 -4 l0 -4 l1 -7 l1 -6 l2 -3 l1 -2 l-1 -4 l0 -4 l-2 -3 l-1 -2 l-5 -2 l-5 -2 l1 -1 l1 -1 l-2 -2 l-2 -2 l-4 -2 l-3 -1 l-1 -2 l0 -1 l-2 0 l-1 0 l-1 -3 l-1 -2 l-2 0 l-1 1 l0 -1 l1 0 l-2 -2 l-2 -2 l-1 0 l-1 0 l-2 -2 l-1 -2 l0 -1 l0 -1 l3 2 l4 1 l0 1 l1 1 l3 2 l4 2 l2 0 l1 0 l0 1 l1 1 l2 1 l3 0 l1 1 l1 0 l8 1 l9 0 l0 0 l0 0 l2 0 l3 1 l4 1 l4 1 l4 2 l5 2 l3 4 l4 4 l0 0 l0 -1 l3 3 l2 2 l0 1 l0 1 l1 0 l2 0 l1 2 l1 1 l0 4 l0 4 l1 0 l1 1 l-1 1 l-1 2 l0 1 l0 2 l-1 3 l0 3 l-2 2 l-2 3 l1 2 l2 2 l2 2 l2 2 l-2 0 l-1 0 l1 2 l0 1 l2 0 l1 -1 l1 2 l0 1 l2 0 l1 -1 l2 2 l2 2 l1 -1 l2 0 l0 2 l0 3 l1 -2 l1 -1 l0 0 l0 1 l0 1 l1 1 l1 1 l2 1 l-3 0 l-2 0 l2 1 l2 1 l-1 1 l0 1 l-1 -1 l-1 0 l1 2 l2 2 l-1 2 l0 3 l-1 0 l-1 0 l0 1 l0 1 l2 0 l1 -1 l0 2 l0 2 l3 3 l3 3 l1 0 l1 0 l0 1 l0 1 l2 1 l3 1 l-3 0 l-2 0 l-3 -2 z"/>
<path d="M 595 717 l0 -1 l2 1 l2 0 l0 1 l0 0 l-2 0 l-2 0 l0 -1 z"/>
<path d="M 430 607 l3 -3 l3 -6 l3 -7 l-1 -1 l-1 -1 l-1 -8 l0 -7 l0 -5 l-1 -4 l1 -4 l1 -3 l4 -4 l3 -4 l5 -3 l5 -2 l4 -1 l4 0 l0 1 l1 1 l1 -1 l1 0 l0 -2 l0 -2 l3 -2 l2 -3 l6 0 l6 1 l1 -2 l2 -2 l0 -2 l0 -2 l2 -1 l2 -1 l0 -1 l0 -1 l1 -3 l1 -2 l0 -2 l0 -1 l1 0 l1 0 l1 3 l1 2 l-1 0 l-1 0 l0 4 l1 4 l-1 2 l-1 3 l-1 11 l0 11 l-1 0 l-1 0 l1 4 l0 3 l-1 0 l-1 0 l0 2 l-1 3 l-3 3 l-4 4 l-1 1 l-1 2 l-4 2 l-4 2 l-5 -2 l-4 -1 l-3 0 l-2 0 l-2 2 l-2 2 l-2 1 l-1 2 l-1 2 l0 2 l0 2 l0 3 l-1 0 l-1 0 l-3 2 l-3 2 l1 1 l0 1 l-1 0 l-1 0 l-3 3 l-3 3 l-2 1 l-2 1 l-1 0 l-1 0 l3 -3 z"/>
<path d="M 495 517 l-1 -1 l0 -1 l0 0 l2 1 l1 2 l0 0 l0 1 l-1 0 l-1 0 l0 -2 z"/>
<path d="M 640 486 l-1 -1 l1 0 l1 0 l0 1 l0 1 l0 0 l-1 0 l0 -1 z"/>
<path d="M 563 433 l0 -1 l1 0 l1 -1 l0 1 l0 2 l-1 0 l-1 0 l0 -1 z"/>
<path d="M 600 431 l-1 -2 l0 0 l1 0 l1 2 l2 2 l-1 0 l-1 0 l-1 -2 z"/>
<path d="M 583 428 l1 0 l1 0 l0 1 l-2 0 l-1 0 l1 -1 z"/>
</g>
</svg>
